<?xml version="1.0" encoding="UTF-8"?>
<svg id="Capa_1" xmlns="http://www.w3.org/2000/svg" version="1.1" viewBox="0 0 113.4 113.4">
  <!-- Generator: Adobe Illustrator 29.5.1, SVG Export Plug-In . SVG Version: 2.1.0 Build 141)  -->
  <defs>
    <style>
      .st0 {
        fill: #1777bd;
      }

      .st1 {
        fill: #fff;
      }
    </style>
  </defs>
  <path class="st0" d="M17.6,20.8h-4.8l.7-5.4h5.1c2.3,0,3.4,1,3.2,2.6h0c-.2,1.9-1.9,2.8-4.1,2.8ZM21.8,26.6h0c.2-1.8-1-2.8-3.8-2.8h-5.6l-.7,5.5h5.9c2.4,0,4-1,4.2-2.8ZM52.3,29.8c2.4,0,4.6-1.9,5-4.9h0c.4-3-1.4-4.9-3.8-4.9s-4.7,2-5,4.9h0c-.4,3,1.5,4.9,3.8,4.9ZM70,29.8c2.3,0,4.7-2,5-4.9h0c.4-3-1.5-4.9-3.8-4.9s-4.6,1.8-5,4.9h0c-.4,3,1.4,4.9,3.8,4.9ZM42.4,46.3l-.4,3.1h28.1c5.9,0,9.2-3.1,10.9-5.4l3.5,6.4c.3.6.9.9,1.6.8.6,0,1.2-.6,1.3-1.2l7.1-31,3.3,37.5c0,.9.9,1.7,1.8,1.7s1.3-.4,1.6-1l5.3-11c1,1.5,2.6,3.2,4.9,3.2h1.8v63.9H0V0h113.4v46.3h-1.8c-1.4,0-2.5-2.1-3.1-3.2-.3-.6-.5-1-.8-1.3-.4-.3-.9-.5-1.3-.4-.5,0-.9.4-1.1.8l-4.6,9.9-3.6-39.5c0-1-.9-1.7-1.9-1.8-1,0-1.9.6-2.1,1.5l-7.7,33-2.7-5.1c-.2-.4-.6-.7-1-.8-.4-.1-.9,0-1.2.2-.4.2-.5.5-.8,1-.9,1.5-3.5,5.6-9.4,5.6h-27.8ZM68.7,32.8c2.5,0,4.2-1.3,5.5-2.9l-.3,2.5h3.5l1.9-15.2h-3.5l-.3,2.4c-.9-1.4-2.4-2.7-4.9-2.7-3.6,0-7.4,2.9-8,7.9h0c-.6,5.1,2.5,8,6.1,8ZM43.6,37.1h3.5l.9-7c.9,1.4,2.3,2.7,4.9,2.7,3.6,0,7.4-2.9,8-7.9h0c.6-5.1-2.5-8-6.1-8s-4.2,1.3-5.5,2.9l.3-2.5h-3.5l-2.4,19.9ZM7.8,32.5h9.4c4.5,0,7.7-1.9,8.2-5.5h0c.3-2.8-1.1-4.2-3.4-5,1.6-.8,3.1-2.1,3.4-4.5h0c.2-1.4-.2-2.5-.9-3.4-1-1.2-2.8-1.8-5.1-1.8h-9.1l-2.5,20.2ZM42.7,17.3h-3.5l-1.1,8.6c-.3,2.4-1.9,3.8-3.9,3.8s-3.1-1.3-2.8-3.7l1.1-8.7h-3.5l-1.2,9.7c-.4,3.5,1.3,5.9,4.7,5.9s3.9-1.2,5.1-2.7l-.3,2.4h3.5l1.9-15.2Z"/>
  <path class="st1" d="M113.4,46.3v3.1h-1.8c-2.4,0-3.9-1.7-4.9-3.2l-5.3,11c-.3.6-.9,1-1.6,1s-1.8-.7-1.8-1.7l-3.3-37.5-7.1,31c-.2.6-.7,1.1-1.3,1.2-.6,0-1.3-.2-1.6-.8l-3.5-6.4c-1.7,2.3-5,5.4-10.9,5.4h-28.1l.4-3.1h27.8c5.9,0,8.4-4.1,9.4-5.6.3-.5.5-.8.8-1,.4-.2.8-.3,1.2-.2.4.1.8.4,1,.8l2.7,5.1,7.7-33c.2-1,1.1-1.6,2.1-1.5,1,0,1.8.8,1.9,1.8l3.6,39.5,4.6-9.9c.2-.4.7-.7,1.1-.8.5,0,1,0,1.3.4.3.3.5.7.8,1.3.6,1.1,1.7,3.2,3.1,3.2h1.8ZM62.6,24.9h0c.6-5.1,4.4-8,8-8s3.9,1.2,4.9,2.7l.3-2.4h3.5l-1.9,15.2h-3.5l.3-2.5c-1.3,1.6-3.1,2.9-5.5,2.9-3.6,0-6.7-2.9-6.1-7.9ZM70,29.8c2.3,0,4.7-2,5-4.9h0c.4-3-1.5-4.9-3.8-4.9s-4.6,1.8-5,4.9h0c-.4,3,1.4,4.9,3.8,4.9ZM21.9,22c2.3.8,3.7,2.2,3.4,4.9h0c-.4,3.7-3.7,5.6-8.2,5.6H7.8l2.5-20.2h9.1c2.3,0,4,.6,5.1,1.8.8.9,1.1,2,.9,3.3h0c-.3,2.5-1.8,3.8-3.4,4.6ZM12.8,20.8h4.8c2.3,0,3.9-.9,4.1-2.7h0c.2-1.6-1-2.6-3.2-2.6h-5.1l-.7,5.4ZM18,23.8h-5.6l-.7,5.5h5.9c2.4,0,4-1,4.2-2.8h0c.2-1.8-1-2.8-3.8-2.8ZM39.1,17.3l-1.1,8.6c-.3,2.4-1.9,3.8-3.9,3.8s-3.1-1.3-2.8-3.7l1.1-8.7h-3.5l-1.2,9.7c-.4,3.5,1.3,5.9,4.7,5.9s3.9-1.2,5.1-2.7l-.3,2.4h3.5l1.9-15.2h-3.5ZM47.1,37.1h-3.5l2.4-19.9h3.5l-.3,2.5c1.3-1.6,3.1-2.9,5.5-2.9,3.6,0,6.7,2.8,6.1,7.9h0c-.6,5.1-4.4,8-8,8s-4-1.3-4.9-2.7l-.9,7ZM52.3,29.8c2.4,0,4.6-1.9,5-4.9h0c.4-3-1.4-4.9-3.8-4.9s-4.7,2-5,4.9h0c-.4,3,1.5,4.9,3.8,4.9Z"/>
</svg>