<svg id="evb46OHJcYr1" xmlns="http://www.w3.org/2000/svg" xmlns:xlink="http://www.w3.org/1999/xlink" viewBox="0 0 133 42" shape-rendering="geometricPrecision" text-rendering="geometricPrecision">
<style><![CDATA[
#evb46OHJcYr3 {animation: evb46OHJcYr3_c_o 2000ms linear 1 normal forwards}@keyframes evb46OHJcYr3_c_o { 0% {opacity: 0} 70% {opacity: 0} 100% {opacity: 1}} #evb46OHJcYr4_to {animation: evb46OHJcYr4_to__to 2000ms linear 1 normal forwards}@keyframes evb46OHJcYr4_to__to { 0% {transform: translate(66.499998px,21.448078px)} 35% {transform: translate(66.499998px,21.448078px)} 70% {transform: translate(102.399998px,21.2px)} 100% {transform: translate(102.399998px,21.2px)}} #evb46OHJcYr4 {animation: evb46OHJcYr4_c_o 2000ms linear 1 normal forwards}@keyframes evb46OHJcYr4_c_o { 0% {opacity: 0} 35% {opacity: 0} 70% {opacity: 1} 100% {opacity: 1}} #evb46OHJcYr5_to {animation: evb46OHJcYr5_to__to 2000ms linear 1 normal forwards}@keyframes evb46OHJcYr5_to__to { 0% {transform: translate(21.6px,21.2px)} 15% {transform: translate(21.6px,21.2px)} 50% {transform: translate(59.9px,21.2px)} 100% {transform: translate(59.9px,21.2px)}} #evb46OHJcYr5 {animation: evb46OHJcYr5_c_o 2000ms linear 1 normal forwards}@keyframes evb46OHJcYr5_c_o { 0% {opacity: 0} 15% {opacity: 0} 50% {opacity: 1} 100% {opacity: 1}} #evb46OHJcYr6 {animation: evb46OHJcYr6_c_o 2000ms linear 1 normal forwards}@keyframes evb46OHJcYr6_c_o { 0% {opacity: 0} 50% {opacity: 1} 100% {opacity: 1}}
]]></style>
<path id="evb46OHJcYr3" d="M131.4,6.4c0,2.7-2.1,4.9-4.9,4.9s-5-2.2-5-4.9s2.2-4.8,5-4.8s4.9,2.1,4.9,4.8m-8.7,0c0,2.2,1.6,3.9,3.8,3.9c2.1,0,3.7-1.7,3.7-3.8c0-2.2-1.6-3.9-3.7-3.9-2.2,0-3.8,1.7-3.8,3.8m3,2.6h-1.1v-4.9c.4-.1,1.1-.1,1.8-.1.9,0,1.3.1,1.7.4.3.2.5.6.5,1.1s-.4.9-1,1.1v.1c.5.2.7.5.9,1.2.1.7.2,1,.4,1.2h-1.2c-.1-.2-.2-.6-.4-1.2-.1-.5-.4-.8-1-.8h-.5v1.9Zm0-2.8h.5c.6,0,1.1-.2,1.1-.7c0-.4-.3-.7-1-.7-.3,0-.5,0-.6.1v1.3Z" opacity="0" fill="#ffffff"/><g id="evb46OHJcYr4_to" transform="translate(66.499998,21.448078)"><polygon id="evb46OHJcYr4" points="96.9,26.6 82.7,26.6 82.7,15.8 96.9,15.8 96.9,1.6 107.8,1.6 107.8,15.8 122.1,15.8 122.1,26.6 107.8,26.6 107.8,40.8 96.9,40.8" transform="translate(-102.399998,-21.2)" opacity="0" fill="#bed630"/></g><g id="evb46OHJcYr5_to" transform="translate(21.6,21.2)"><polygon id="evb46OHJcYr5" points="40.2,33.2 52.2,21.2 40.2,9.2 47.9,1.6 59.9,13.6 71.9,1.6 79.6,9.2 67.6,21.2 79.6,33.2 71.9,40.8 59.9,28.9 47.9,40.8" transform="translate(-59.9,-21.2)" opacity="0" fill="#bed630"/></g><path id="evb46OHJcYr6" d="M29.6,19.6c3.1-1.6,5.2-4.4,5.2-8c0-8.2-7.5-10-14.4-9.9h-18.5v39.5h19.1c8.5,0,15.5-2.9,15.5-12.3-.1-4.4-2.7-8.1-6.9-9.3M12.2,9.7h8c2.2,0,4.2.9,4.2,3.8c0,2.8-2.4,3.8-4.2,3.8h-8v-7.6ZM20.5,33h-8.3v-9.1h8.3c3.1,0,5.6,1.2,5.6,4.7c0,3.3-2.3,4.4-5.6,4.4" opacity="0" fill="#2c3b45"/></svg>
