<?xml version="1.0" encoding="utf-8"?>
<!-- Generator: Adobe Illustrator 22.0.0, SVG Export Plug-In . SVG Version: 6.00 Build 0)  -->
<svg version="1.1" id="Layer_1" xmlns="http://www.w3.org/2000/svg" xmlns:xlink="http://www.w3.org/1999/xlink" x="0px" y="0px"
	 viewBox="0 0 150 150" style="enable-background:new 0 0 150 150;" xml:space="preserve">
<style type="text/css">
	.st0{fill:#005F9E;}
</style>
<g>
	<path class="st0" d="M27.1,37.6c0.2,0.1,0.4,0.1,0.6,0.1c0.2,0,0.4-0.1,0.6-0.2c0.2-0.1,0.5-0.2,0.7-0.4c0.1-0.1,0.3-0.2,0.4-0.2
		c0.1-0.1,0.3-0.1,0.4-0.1c0.1,0,0.2,0,0.3,0c0.1,0,0.2,0.1,0.3,0.2c0.2,0.1,0.2,0.3,0.2,0.5c0,0.2-0.1,0.4-0.3,0.6
		c-0.2,0.2-0.3,0.3-0.5,0.5c-0.2,0.1-0.4,0.2-0.6,0.3l0.4,0.8c0.2-0.1,0.4-0.2,0.6-0.3c0.2-0.2,0.5-0.4,0.7-0.7
		c0.4-0.5,0.6-1,0.6-1.4c0-0.5-0.2-0.9-0.6-1.2c-0.2-0.2-0.4-0.3-0.6-0.3c-0.2,0-0.4-0.1-0.6,0c-0.2,0-0.4,0.1-0.6,0.2
		c-0.2,0.1-0.4,0.2-0.6,0.3c-0.2,0.1-0.3,0.2-0.5,0.3c-0.2,0.1-0.3,0.1-0.4,0.2c-0.1,0-0.3,0-0.4,0c-0.1,0-0.2-0.1-0.3-0.2
		c-0.2-0.1-0.3-0.3-0.3-0.5c0-0.2,0.1-0.5,0.4-0.8c0.2-0.3,0.5-0.5,0.7-0.6c0.2-0.1,0.4-0.2,0.6-0.3l-0.5-0.8
		c-0.1,0-0.2,0.1-0.3,0.1c-0.1,0.1-0.2,0.1-0.4,0.2c-0.1,0.1-0.3,0.2-0.4,0.3c-0.2,0.1-0.3,0.3-0.5,0.5c-0.5,0.5-0.7,1.1-0.7,1.5
		c0,0.5,0.2,0.9,0.6,1.2C26.7,37.4,26.9,37.5,27.1,37.6z"/>
	<path class="st0" d="M23.5,40.9c0.2,0.2,0.4,0.5,0.7,0.7c0.3,0.2,0.6,0.3,0.9,0.4c0.3,0.1,0.6,0.1,0.8,0.1c0.3,0,0.5-0.1,0.8-0.3
		c0.2-0.1,0.4-0.3,0.6-0.6c0.2-0.3,0.3-0.5,0.4-0.8c0.1-0.3,0.1-0.5,0-0.8c-0.1-0.3-0.2-0.5-0.3-0.8c-0.2-0.2-0.4-0.5-0.7-0.7
		c-0.3-0.2-0.6-0.3-0.9-0.4c-0.3-0.1-0.6-0.1-0.8-0.1c-0.3,0-0.5,0.1-0.8,0.3c-0.2,0.1-0.4,0.3-0.6,0.6c-0.2,0.3-0.3,0.5-0.4,0.8
		c-0.1,0.3-0.1,0.5,0,0.8C23.2,40.4,23.3,40.7,23.5,40.9z M24.2,39.1c0.2-0.3,0.4-0.4,0.8-0.4c0.3,0,0.7,0.1,1,0.4
		c0.4,0.3,0.6,0.5,0.7,0.8c0.1,0.3,0.1,0.6-0.1,0.9c-0.2,0.3-0.4,0.4-0.8,0.4c-0.3,0-0.7-0.1-1-0.4c-0.4-0.3-0.6-0.5-0.7-0.8
		C23.9,39.6,24,39.3,24.2,39.1z"/>
	<path class="st0" d="M21.1,43.9c0.1-0.2,0.1-0.3,0.2-0.5c0.2-0.4,0.5-0.6,0.8-0.6c0.3,0,0.7,0.1,1,0.3c0.4,0.2,0.6,0.5,0.7,0.8
		c0.1,0.3,0.1,0.6-0.2,1c-0.1,0.1-0.2,0.3-0.3,0.4c-0.1,0.1-0.2,0.2-0.3,0.3l0.6,0.6c0.3-0.2,0.6-0.5,0.8-0.9
		c0.2-0.3,0.3-0.6,0.3-0.9c0-0.3,0-0.6-0.1-0.8c-0.1-0.3-0.2-0.5-0.4-0.7c-0.2-0.2-0.4-0.4-0.7-0.6c-0.3-0.2-0.6-0.3-0.9-0.4
		c-0.3-0.1-0.6-0.1-0.8,0c-0.3,0-0.5,0.2-0.8,0.3c-0.2,0.2-0.5,0.4-0.7,0.7c-0.1,0.2-0.2,0.4-0.3,0.6c-0.1,0.2-0.1,0.4-0.1,0.5
		l0.8,0.3C21,44.2,21.1,44,21.1,43.9z"/>
	<path class="st0" d="M24.8,48.2c0.2-0.1,0.3-0.2,0.4-0.3c0.1-0.2,0.1-0.3,0.1-0.5c0-0.2-0.1-0.3-0.3-0.4c-0.2-0.1-0.3-0.1-0.5-0.1
		c-0.2,0.1-0.3,0.2-0.4,0.3C24,47.4,24,47.6,24,47.7c0,0.2,0.1,0.3,0.3,0.4C24.5,48.2,24.7,48.2,24.8,48.2z"/>
	<rect x="21.1" y="43.7" transform="matrix(0.479 -0.8778 0.8778 0.479 -29.0554 42.8726)" class="st0" width="1" height="4.4"/>
	<path class="st0" d="M18.5,49.1c0-0.2,0.1-0.4,0.2-0.6c0.2-0.4,0.4-0.6,0.7-0.7c0.3-0.1,0.6-0.1,0.9,0L19,50.4c0,0,0.1,0.1,0.2,0.1
		c0.1,0,0.1,0.1,0.2,0.1c0.7,0.3,1.2,0.4,1.7,0.3c0.5-0.1,0.9-0.5,1.1-1c0.1-0.2,0.2-0.5,0.2-0.7c0-0.3,0-0.5-0.1-0.8
		c-0.1-0.3-0.2-0.5-0.5-0.7c-0.2-0.2-0.5-0.4-0.8-0.6c-0.3-0.1-0.6-0.2-0.9-0.3c-0.3,0-0.6,0-0.8,0.1c-0.3,0.1-0.5,0.2-0.7,0.4
		c-0.2,0.2-0.4,0.5-0.6,0.8c-0.1,0.1-0.1,0.3-0.2,0.4c0,0.1-0.1,0.3-0.1,0.4c0,0.1-0.1,0.2-0.1,0.3c0,0.1,0,0.2,0,0.2l0.8,0.2
		C18.4,49.5,18.4,49.3,18.5,49.1z M21.2,48.3c0.1,0.1,0.2,0.2,0.2,0.3c0.1,0.1,0.1,0.2,0.1,0.4c0,0.1,0,0.3-0.1,0.4
		c-0.1,0.1-0.1,0.2-0.2,0.3c-0.1,0.1-0.2,0.1-0.3,0.2c-0.1,0-0.2,0-0.4,0c-0.1,0-0.3-0.1-0.4-0.1l0.8-1.7
		C21,48.2,21.1,48.2,21.2,48.3z"/>
	<path class="st0" d="M21.8,55.4l-2-0.8c0.1-0.1,0.2-0.2,0.3-0.3c0.1-0.1,0.2-0.3,0.3-0.5c0.1-0.3,0.2-0.6,0.1-0.8
		c0-0.3-0.1-0.5-0.2-0.7c-0.1-0.2-0.3-0.4-0.5-0.6c-0.2-0.2-0.5-0.3-0.8-0.5C18.6,51.1,18.3,51,18,51c-0.3,0-0.6,0-0.8,0.2
		c-0.3,0.1-0.5,0.3-0.7,0.5c-0.2,0.2-0.4,0.5-0.5,0.8c-0.1,0.3-0.2,0.6-0.3,0.9c-0.1,0.3-0.1,0.6-0.1,0.8l5.9,2.3L21.8,55.4z
		 M19.5,53.7c-0.1,0.2-0.1,0.3-0.2,0.4c-0.1,0.1-0.2,0.2-0.3,0.3l-2.3-0.9c0-0.1,0-0.2,0.1-0.3c0-0.1,0.1-0.2,0.1-0.4
		c0.1-0.3,0.4-0.6,0.7-0.7c0.3-0.1,0.7-0.1,1.1,0.1c0.4,0.2,0.7,0.4,0.9,0.6C19.7,53,19.7,53.3,19.5,53.7z"/>
	<path class="st0" d="M17.5,59.4c0.2,0,0.4,0,0.6-0.1c0.2-0.1,0.3-0.2,0.5-0.4c0.1-0.2,0.3-0.5,0.4-0.8c0.1-0.3,0.1-0.5,0.2-0.8
		c0-0.2,0-0.4,0-0.6l-0.8-0.1c0,0.1,0,0.3,0,0.5c0,0.2-0.1,0.4-0.1,0.6c0,0.2-0.1,0.3-0.2,0.4c-0.1,0.1-0.2,0.2-0.3,0.2
		c-0.1,0-0.2,0.1-0.3,0.1c-0.1,0-0.2,0-0.3-0.1l-0.2,0c0.1-0.1,0.1-0.2,0.2-0.4c0-0.1,0.1-0.2,0.1-0.3c0.1-0.2,0.1-0.5,0.1-0.7
		c0-0.2,0-0.4-0.1-0.6s-0.2-0.4-0.3-0.5c-0.1-0.1-0.3-0.3-0.6-0.3c-0.3-0.1-0.5-0.1-0.7-0.1c-0.2,0-0.4,0.1-0.5,0.2
		c-0.2,0.1-0.3,0.3-0.4,0.5c-0.1,0.2-0.2,0.4-0.3,0.7c-0.1,0.4-0.2,0.7-0.2,1c0,0.3-0.1,0.6-0.1,0.7l2.5,0.8
		C17.1,59.3,17.3,59.4,17.5,59.4z M16.6,57.2c0,0.1,0,0.2-0.1,0.3c0,0.1-0.1,0.2-0.1,0.3c0,0.1-0.1,0.2-0.1,0.2l-1.1-0.3
		c0-0.2,0.1-0.4,0.2-0.7c0.1-0.2,0.2-0.4,0.3-0.5c0.1-0.1,0.3-0.1,0.5-0.1c0.1,0,0.2,0.1,0.3,0.2c0.1,0.1,0.1,0.2,0.1,0.3
		C16.6,57,16.6,57.1,16.6,57.2z"/>
	<path class="st0" d="M19.4,64.7l0.1-1l-2.1-0.4c0.1-0.1,0.2-0.2,0.3-0.4c0.1-0.1,0.1-0.3,0.2-0.5c0.1-0.3,0.1-0.6,0-0.8
		c-0.1-0.3-0.2-0.5-0.3-0.7c-0.2-0.2-0.4-0.4-0.6-0.5c-0.3-0.1-0.6-0.3-0.9-0.3c-0.3-0.1-0.7-0.1-1-0.1c-0.3,0-0.6,0.1-0.8,0.3
		c-0.2,0.1-0.4,0.3-0.6,0.6c-0.2,0.2-0.3,0.5-0.4,0.9c-0.1,0.3-0.1,0.6-0.1,1c0,0.3,0,0.6,0,0.8L19.4,64.7z M14.1,62.3
		c0-0.1,0-0.3,0.1-0.4c0.1-0.4,0.3-0.6,0.6-0.8c0.3-0.2,0.7-0.2,1.1-0.1c0.4,0.1,0.7,0.2,0.9,0.5C17,61.7,17,62,17,62.3
		c0,0.2-0.1,0.3-0.2,0.4c-0.1,0.1-0.2,0.2-0.2,0.3l-2.5-0.5C14.1,62.5,14.1,62.4,14.1,62.3z"/>
	<path class="st0" d="M15,72.7c0.5,0,1,0,1.5,0c0.5,0,0.9,0,1.4,0l0.1-0.9c-0.2-0.1-0.4-0.3-0.7-0.5c-0.3-0.2-0.6-0.4-0.9-0.5
		c-0.3-0.2-0.7-0.4-1-0.5c-0.3-0.2-0.6-0.3-0.9-0.5c0.3-0.1,0.6-0.2,1-0.3c0.4-0.1,0.7-0.2,1.1-0.4c0.3-0.1,0.7-0.3,1-0.4
		c0.3-0.1,0.6-0.2,0.8-0.3l0.1-1c-0.4-0.1-0.8-0.2-1.3-0.3c-0.5-0.1-1-0.2-1.5-0.3c-0.5-0.1-1-0.2-1.5-0.2c-0.5-0.1-1-0.1-1.5-0.2
		l-0.1,1c0.7,0.1,1.4,0.2,2.1,0.3c0.7,0.1,1.4,0.2,2.1,0.3c-0.1,0.1-0.3,0.1-0.5,0.2c-0.2,0.1-0.4,0.1-0.6,0.2
		c-0.2,0.1-0.4,0.2-0.7,0.2c-0.2,0.1-0.5,0.2-0.7,0.2c-0.2,0.1-0.4,0.1-0.6,0.2c-0.2,0.1-0.4,0.1-0.5,0.2L13,69.9
		c0.1,0.1,0.3,0.1,0.4,0.2c0.2,0.1,0.4,0.2,0.6,0.3c0.2,0.1,0.4,0.2,0.6,0.3c0.2,0.1,0.4,0.2,0.6,0.3c0.2,0.1,0.4,0.2,0.6,0.3
		c0.2,0.1,0.3,0.2,0.4,0.3c-0.7,0-1.4,0-2.1,0c-0.7,0-1.4-0.1-2.1-0.1l-0.1,1c0.5,0,1,0,1.5,0C14,72.7,14.5,72.7,15,72.7z"/>
	<path class="st0" d="M12.2,77.7l0.8-0.1c-0.1-0.1-0.1-0.3-0.2-0.5c0-0.2-0.1-0.4-0.1-0.7c0-0.4,0.1-0.7,0.3-1
		c0.2-0.2,0.5-0.4,0.8-0.4l0,2.9c0.1,0,0.1,0,0.2,0c0.1,0,0.1,0,0.2,0c0.7,0,1.3-0.2,1.7-0.5c0.4-0.3,0.5-0.8,0.5-1.4
		c0-0.3-0.1-0.5-0.2-0.8c-0.1-0.2-0.3-0.5-0.4-0.6c-0.2-0.2-0.4-0.3-0.7-0.4c-0.3-0.1-0.6-0.2-1-0.2c-0.3,0-0.6,0.1-0.9,0.1
		c-0.3,0.1-0.5,0.2-0.7,0.4c-0.2,0.2-0.4,0.4-0.5,0.7c-0.1,0.3-0.2,0.6-0.2,1c0,0.2,0,0.3,0,0.4c0,0.1,0,0.3,0.1,0.4
		c0,0.1,0.1,0.2,0.1,0.3C12.1,77.5,12.2,77.6,12.2,77.7z M15,75.1c0.1,0,0.2,0.1,0.3,0.2c0.1,0.1,0.2,0.2,0.2,0.3
		c0.1,0.1,0.1,0.3,0.1,0.4c0,0.2,0,0.3-0.1,0.4c-0.1,0.1-0.1,0.2-0.2,0.3c-0.1,0.1-0.2,0.1-0.3,0.2c-0.1,0-0.3,0.1-0.4,0.1l0-1.9
		C14.7,75,14.9,75.1,15,75.1z"/>
	<path class="st0" d="M14.6,80.9l2.2,1.3l-0.1-1.1l-1.4-0.8l1.3-1l-0.1-1.1l-2,1.7c-0.2-0.1-0.4-0.3-0.6-0.4
		c-0.2-0.1-0.4-0.3-0.6-0.4c-0.2-0.1-0.4-0.2-0.6-0.3c-0.2-0.1-0.4-0.2-0.6-0.3l0.1,1c0.2,0.1,0.5,0.2,0.8,0.4
		c0.3,0.2,0.6,0.3,0.8,0.5c-0.1,0.1-0.2,0.2-0.3,0.3c-0.1,0.1-0.2,0.2-0.4,0.3c-0.1,0.1-0.2,0.2-0.4,0.3c-0.1,0.1-0.2,0.2-0.3,0.2
		l0.1,1.1c0.3-0.2,0.7-0.5,1-0.8C13.8,81.6,14.2,81.3,14.6,80.9z"/>
	<path class="st0" d="M17.7,82.6c-0.1,0.1-0.1,0.3-0.1,0.5c0,0.2,0.1,0.3,0.2,0.4c0.1,0.1,0.3,0.1,0.5,0.1c0.2,0,0.3-0.1,0.4-0.2
		c0.1-0.1,0.1-0.3,0.1-0.5c0-0.2-0.1-0.3-0.2-0.4c-0.1-0.1-0.3-0.1-0.5-0.1C17.9,82.4,17.8,82.4,17.7,82.6z"/>
	<rect x="12.6" y="82.9" transform="matrix(0.9905 -0.1375 0.1375 0.9905 -11.3312 2.8234)" class="st0" width="4.4" height="1"/>
	<path class="st0" d="M14.1,87.6c-0.1-0.2-0.1-0.3-0.1-0.5c-0.1-0.5,0-0.8,0.2-1c0.2-0.2,0.5-0.4,1-0.5c0.4-0.1,0.8,0,1.1,0.1
		c0.3,0.2,0.5,0.4,0.5,0.8c0,0.2,0,0.3,0,0.5c0,0.2,0,0.3-0.1,0.4l0.9,0.1c0.1-0.4,0.1-0.8,0-1.2c-0.1-0.3-0.2-0.6-0.3-0.9
		c-0.2-0.2-0.4-0.4-0.6-0.6c-0.2-0.1-0.5-0.2-0.8-0.3c-0.3,0-0.6,0-0.9,0c-0.3,0.1-0.6,0.2-0.9,0.3c-0.3,0.1-0.5,0.3-0.6,0.5
		c-0.2,0.2-0.3,0.5-0.3,0.8c-0.1,0.3-0.1,0.6,0,1c0,0.2,0.1,0.5,0.2,0.7c0.1,0.2,0.2,0.4,0.2,0.5l0.8-0.3
		C14.2,87.8,14.1,87.7,14.1,87.6z"/>
	<path class="st0" d="M17.7,91.3c0.2-0.1,0.3-0.2,0.5-0.4c0.1-0.2,0.2-0.4,0.2-0.6c0-0.2,0-0.5-0.1-0.9c-0.1-0.3-0.2-0.5-0.3-0.7
		c-0.1-0.2-0.2-0.4-0.3-0.5L17,88.5c0.1,0.1,0.2,0.3,0.2,0.4c0.1,0.2,0.2,0.4,0.2,0.6c0,0.2,0.1,0.3,0,0.4c0,0.1-0.1,0.2-0.1,0.3
		c-0.1,0.1-0.1,0.2-0.2,0.2c-0.1,0.1-0.2,0.1-0.3,0.1l-0.2,0c0-0.1,0-0.3,0-0.4c0-0.1,0-0.2-0.1-0.3c-0.1-0.2-0.1-0.4-0.2-0.7
		c-0.1-0.2-0.2-0.4-0.4-0.5c-0.1-0.1-0.3-0.2-0.5-0.3c-0.2-0.1-0.4,0-0.7,0c-0.3,0.1-0.5,0.2-0.6,0.3c-0.2,0.1-0.3,0.3-0.3,0.5
		c-0.1,0.2-0.1,0.4-0.1,0.6c0,0.2,0,0.5,0.1,0.7c0.1,0.4,0.2,0.7,0.3,1c0.1,0.3,0.2,0.5,0.3,0.7l2.6-0.7
		C17.3,91.5,17.5,91.4,17.7,91.3z M14.9,91.1c-0.1-0.1-0.1-0.4-0.2-0.7c-0.1-0.2-0.1-0.5,0-0.6c0.1-0.2,0.2-0.3,0.4-0.3
		c0.1,0,0.2,0,0.3,0c0.1,0,0.2,0.1,0.2,0.2c0.1,0.1,0.1,0.2,0.2,0.3c0,0.1,0.1,0.2,0.1,0.3c0,0.1,0.1,0.2,0.1,0.3c0,0.1,0,0.2,0,0.2
		L14.9,91.1z"/>
	<path class="st0" d="M19,95.8c0.2-0.1,0.4-0.3,0.5-0.5c0.1-0.2,0.2-0.4,0.2-0.7c0-0.3,0-0.6-0.1-0.9c-0.1-0.4-0.3-0.7-0.4-1
		c-0.1-0.3-0.3-0.5-0.4-0.7l-4,1.4l0.3,1l3.3-1.1c0,0.1,0.1,0.2,0.1,0.3c0.1,0.1,0.1,0.3,0.2,0.4c0.1,0.2,0.1,0.3,0.1,0.4
		c0,0.1,0,0.2-0.1,0.3c-0.1,0.1-0.2,0.2-0.3,0.3c-0.1,0.1-0.3,0.2-0.6,0.2L15.6,96l0.3,1l2.3-0.8C18.5,96.1,18.8,95.9,19,95.8z"/>
	<path class="st0" d="M20.8,99.7c0.2-0.1,0.3-0.3,0.4-0.5c0.1-0.2,0.1-0.4,0.1-0.6c0-0.2-0.1-0.5-0.2-0.8c-0.1-0.3-0.2-0.5-0.4-0.7
		c-0.1-0.2-0.3-0.4-0.3-0.5L19.6,97c0.1,0.1,0.2,0.2,0.3,0.4c0.1,0.2,0.2,0.4,0.3,0.6c0.1,0.2,0.1,0.3,0.1,0.4s0,0.2-0.1,0.3
		c0,0.1-0.1,0.2-0.2,0.2c-0.1,0.1-0.2,0.1-0.3,0.2l-0.2,0.1c0-0.1-0.1-0.3-0.1-0.4c0-0.1-0.1-0.2-0.1-0.3c-0.1-0.2-0.2-0.4-0.3-0.6
		c-0.1-0.2-0.3-0.3-0.4-0.4c-0.2-0.1-0.3-0.2-0.5-0.2c-0.2,0-0.4,0-0.6,0.1c-0.2,0.1-0.4,0.2-0.6,0.4c-0.1,0.1-0.2,0.3-0.3,0.5
		c0,0.2,0,0.4,0,0.6c0,0.2,0.1,0.5,0.2,0.7c0.2,0.4,0.3,0.7,0.5,1c0.2,0.3,0.3,0.5,0.4,0.6l2.4-1C20.4,99.9,20.6,99.8,20.8,99.7z
		 M17.9,99.9c-0.1-0.1-0.2-0.3-0.3-0.6c-0.1-0.2-0.1-0.4-0.1-0.6c0-0.2,0.1-0.3,0.4-0.4c0.1,0,0.2-0.1,0.3,0c0.1,0,0.2,0.1,0.3,0.1
		c0.1,0.1,0.1,0.2,0.2,0.2c0.1,0.1,0.1,0.2,0.2,0.3c0.1,0.1,0.1,0.2,0.1,0.3c0,0.1,0,0.2,0,0.2L17.9,99.9z"/>
	<path class="st0" d="M25.6,102.9l-1.8,1c0-0.1,0-0.3-0.1-0.4c0-0.2-0.1-0.3-0.2-0.5c-0.1-0.3-0.3-0.5-0.5-0.6
		c-0.2-0.2-0.4-0.3-0.7-0.3c-0.3-0.1-0.5,0-0.8,0c-0.3,0.1-0.6,0.2-0.9,0.3c-0.3,0.2-0.6,0.4-0.8,0.6c-0.2,0.2-0.3,0.5-0.4,0.7
		c-0.1,0.3-0.1,0.5-0.1,0.8c0,0.3,0.1,0.6,0.3,0.9c0.2,0.3,0.3,0.6,0.5,0.8c0.2,0.2,0.4,0.4,0.5,0.6l5.6-3.1L25.6,102.9z
		 M20.8,105.5c0-0.1-0.1-0.1-0.2-0.2c-0.1-0.1-0.1-0.2-0.2-0.4c-0.2-0.3-0.2-0.6-0.1-1c0.1-0.3,0.4-0.6,0.8-0.8
		c0.4-0.2,0.7-0.3,1-0.3c0.3,0,0.5,0.2,0.7,0.5c0.1,0.1,0.1,0.3,0.2,0.5c0,0.2,0,0.3,0,0.4L20.8,105.5z"/>
	<path class="st0" d="M26,107c-0.1-0.2-0.3-0.4-0.5-0.6c-0.2-0.2-0.5-0.3-0.7-0.3c-0.3-0.1-0.6,0-0.9,0c-0.3,0.1-0.6,0.2-0.9,0.4
		c-0.3,0.2-0.5,0.4-0.7,0.6c-0.2,0.2-0.3,0.5-0.4,0.7c-0.1,0.3-0.1,0.5,0,0.8c0.1,0.3,0.2,0.6,0.4,0.9c0.1,0.1,0.2,0.2,0.3,0.4
		c0.1,0.1,0.2,0.2,0.3,0.3c0.1,0.1,0.2,0.2,0.3,0.2c0.1,0.1,0.1,0.1,0.2,0.1l0.6-0.6c-0.1-0.1-0.2-0.2-0.4-0.3
		c-0.1-0.1-0.3-0.3-0.4-0.5c-0.2-0.4-0.3-0.7-0.3-1c0-0.3,0.2-0.5,0.5-0.8l1.6,2.4c0,0,0.1-0.1,0.2-0.1c0.1,0,0.1-0.1,0.2-0.1
		c0.6-0.4,1-0.9,1.1-1.3C26.5,108,26.4,107.5,26,107z M25.4,108.2c0,0.1-0.1,0.2-0.2,0.3c-0.1,0.1-0.2,0.2-0.3,0.3l-1-1.6
		c0.1-0.1,0.2-0.1,0.4-0.1c0.1,0,0.3,0,0.4,0c0.1,0,0.2,0.1,0.4,0.1c0.1,0.1,0.2,0.2,0.3,0.3c0.1,0.1,0.1,0.2,0.1,0.4
		C25.5,108,25.5,108.1,25.4,108.2z"/>
	<path class="st0" d="M30.6,115.6c0.4-0.3,0.7-0.7,0.9-1c0.2-0.4,0.3-0.7,0.3-1.1c0-0.4,0-0.7-0.1-1.1c-0.1-0.3-0.3-0.7-0.5-1
		c-0.2-0.3-0.5-0.5-0.8-0.7c-0.3-0.2-0.7-0.3-1-0.3c-0.4,0-0.7,0-1.1,0.1c-0.4,0.1-0.8,0.3-1.2,0.7c-0.4,0.3-0.7,0.7-0.9,1
		c-0.2,0.4-0.3,0.7-0.3,1.1c0,0.4,0,0.7,0.1,1.1c0.1,0.3,0.3,0.7,0.6,1c0.2,0.3,0.5,0.5,0.8,0.7c0.3,0.2,0.7,0.3,1,0.3
		c0.4,0,0.7,0,1.1-0.1C29.9,116.2,30.3,116,30.6,115.6z M28.5,115.4c-0.2,0-0.5,0-0.7-0.1c-0.2-0.1-0.4-0.2-0.6-0.4
		c-0.2-0.2-0.3-0.4-0.3-0.6c-0.1-0.2-0.1-0.5,0-0.7c0-0.2,0.1-0.5,0.3-0.7c0.1-0.2,0.3-0.4,0.6-0.6c0.2-0.2,0.5-0.4,0.7-0.5
		c0.2-0.1,0.5-0.2,0.7-0.2c0.2,0,0.5,0,0.7,0.1c0.2,0.1,0.4,0.3,0.6,0.5c0.2,0.2,0.3,0.4,0.3,0.6c0.1,0.2,0.1,0.5,0,0.7
		c0,0.2-0.1,0.5-0.3,0.7c-0.1,0.2-0.3,0.4-0.6,0.6c-0.2,0.2-0.5,0.4-0.7,0.5C28.9,115.4,28.7,115.4,28.5,115.4z"/>
	<path class="st0" d="M32.7,116.8c0.1,0.1,0.2,0.2,0.3,0.2c0.1,0.1,0.2,0.3,0.3,0.4c0.1,0.1,0.1,0.2,0.2,0.3l0.7-0.5
		c0,0-0.1-0.1-0.1-0.2c0-0.1-0.1-0.1-0.1-0.2c-0.1-0.1-0.1-0.1-0.2-0.2c-0.1-0.1-0.1-0.1-0.2-0.2c-0.2-0.3-0.5-0.5-0.8-0.6
		c-0.3-0.2-0.5-0.3-0.7-0.4l-3,2.9l0.7,0.7l2.5-2.5C32.6,116.7,32.6,116.7,32.7,116.8z"/>
	<path class="st0" d="M33.4,121.2c-0.2-0.2-0.3-0.4-0.3-0.6c0-0.2,0.1-0.4,0.4-0.7l1.2-1.3l1.1,1.1l0.6-0.6l-1.1-1.1l0.9-1l-0.9-0.6
		l-2.6,2.8c-0.2,0.2-0.4,0.4-0.5,0.6c-0.1,0.2-0.2,0.4-0.2,0.6c0,0.2,0,0.4,0.1,0.6c0.1,0.2,0.3,0.4,0.5,0.6
		c0.2,0.2,0.4,0.3,0.5,0.4c0.2,0.1,0.3,0.2,0.4,0.2l0.4-0.7c-0.1,0-0.2-0.1-0.3-0.1C33.6,121.5,33.5,121.4,33.4,121.2z"/>
	<path class="st0" d="M38.5,123.7c0.2-0.3,0.4-0.5,0.5-0.8c0.1-0.3,0.1-0.6,0.1-0.8c0-0.3-0.1-0.5-0.2-0.8c-0.1-0.2-0.3-0.5-0.6-0.7
		c-0.2-0.2-0.5-0.3-0.8-0.4c-0.3-0.1-0.5-0.1-0.8-0.1c-0.3,0-0.5,0.1-0.8,0.3c-0.3,0.2-0.5,0.4-0.7,0.6c-0.2,0.3-0.4,0.5-0.5,0.8
		c-0.1,0.3-0.1,0.6-0.1,0.8c0,0.3,0.1,0.5,0.2,0.8c0.1,0.2,0.3,0.5,0.6,0.7c0.2,0.2,0.5,0.3,0.8,0.4c0.3,0.1,0.5,0.1,0.8,0.1
		c0.3,0,0.5-0.1,0.8-0.3C38.1,124.2,38.3,124,38.5,123.7z M36.8,123.7c-0.3,0.1-0.6,0-0.9-0.2c-0.3-0.2-0.4-0.5-0.4-0.8
		c0-0.3,0.2-0.6,0.4-1c0.3-0.3,0.6-0.5,0.9-0.6c0.3-0.1,0.6,0,0.8,0.2c0.3,0.2,0.4,0.5,0.4,0.8c0,0.3-0.2,0.6-0.4,1
		C37.4,123.4,37.2,123.6,36.8,123.7z"/>
	<path class="st0" d="M43,124.8c0-0.3-0.2-0.5-0.3-0.8c-0.2-0.2-0.4-0.5-0.7-0.7c-0.3-0.2-0.6-0.3-0.8-0.5c-0.3-0.1-0.5-0.2-0.7-0.3
		l-3.3,4.8l0.8,0.6l1-1.4c0.1,0.1,0.1,0.2,0.3,0.4c0.1,0.1,0.3,0.3,0.4,0.4c0.3,0.2,0.5,0.3,0.8,0.3c0.3,0,0.5,0,0.8,0
		c0.2-0.1,0.5-0.2,0.7-0.4c0.2-0.2,0.4-0.4,0.6-0.7c0.2-0.3,0.3-0.6,0.4-0.9C43.1,125.3,43.1,125.1,43,124.8z M41.7,125.9
		c-0.2,0.4-0.5,0.6-0.8,0.7c-0.3,0.1-0.6,0.1-0.9-0.1c-0.1-0.1-0.3-0.2-0.3-0.3c-0.1-0.1-0.2-0.2-0.2-0.3l1.4-2.1
		c0.1,0,0.2,0.1,0.3,0.1c0.1,0.1,0.2,0.1,0.3,0.2c0.4,0.3,0.6,0.5,0.6,0.9C42.1,125.2,42,125.6,41.7,125.9z"/>
	<path class="st0" d="M47.1,127.1c-0.1-0.5-0.4-0.9-0.9-1.2c-0.2-0.1-0.5-0.2-0.7-0.2c-0.3,0-0.5,0-0.8,0.1
		c-0.3,0.1-0.5,0.2-0.8,0.4c-0.2,0.2-0.5,0.5-0.7,0.8c-0.2,0.3-0.3,0.6-0.3,0.9c-0.1,0.3-0.1,0.6,0,0.8c0.1,0.3,0.2,0.5,0.4,0.8
		c0.2,0.2,0.5,0.5,0.8,0.6c0.1,0.1,0.3,0.1,0.4,0.2c0.1,0.1,0.3,0.1,0.4,0.1c0.1,0,0.2,0.1,0.3,0.1c0.1,0,0.2,0,0.2,0l0.3-0.8
		c-0.1,0-0.3-0.1-0.5-0.1c-0.2-0.1-0.4-0.2-0.6-0.3c-0.4-0.2-0.6-0.4-0.7-0.7c-0.1-0.3-0.1-0.6,0.1-0.9l2.5,1.4c0,0,0.1-0.1,0.1-0.2
		c0-0.1,0.1-0.1,0.1-0.2C47.1,128.1,47.2,127.6,47.1,127.1z M46.1,127.6c0,0.1-0.1,0.3-0.1,0.4l-1.6-0.9c0.1-0.1,0.2-0.2,0.3-0.3
		c0.1-0.1,0.2-0.1,0.3-0.2c0.1,0,0.2-0.1,0.4-0.1c0.1,0,0.3,0,0.4,0.1c0.1,0.1,0.2,0.2,0.3,0.3c0.1,0.1,0.1,0.2,0.1,0.3
		C46.2,127.3,46.2,127.5,46.1,127.6z"/>
	<path class="st0" d="M51.7,126.7l-0.9,1.9c-0.1-0.1-0.2-0.2-0.3-0.3c-0.1-0.1-0.3-0.2-0.5-0.3c-0.3-0.1-0.6-0.2-0.8-0.2
		c-0.3,0-0.5,0.1-0.8,0.2c-0.2,0.1-0.5,0.3-0.7,0.5c-0.2,0.2-0.4,0.5-0.5,0.8c-0.1,0.3-0.2,0.6-0.3,0.9c0,0.3,0,0.6,0.1,0.8
		c0.1,0.3,0.2,0.5,0.4,0.7c0.2,0.2,0.5,0.4,0.8,0.5c0.3,0.1,0.6,0.3,0.9,0.3c0.3,0.1,0.5,0.1,0.8,0.2l2.7-5.8L51.7,126.7z
		 M49.4,131.7c-0.1,0-0.2,0-0.3-0.1c-0.1,0-0.2-0.1-0.4-0.2c-0.3-0.2-0.6-0.4-0.6-0.7c-0.1-0.3,0-0.7,0.2-1.1
		c0.2-0.4,0.4-0.7,0.7-0.8c0.3-0.2,0.6-0.2,0.9,0c0.2,0.1,0.3,0.2,0.4,0.3c0.1,0.1,0.2,0.2,0.2,0.3L49.4,131.7z"/>
	<path class="st0" d="M53.8,127.6c-0.2-0.1-0.3-0.1-0.5,0c-0.2,0.1-0.3,0.2-0.3,0.4c-0.1,0.2-0.1,0.3,0,0.5c0.1,0.1,0.2,0.3,0.3,0.3
		c0.2,0.1,0.3,0.1,0.5,0c0.2-0.1,0.3-0.2,0.3-0.4c0.1-0.2,0.1-0.3,0-0.5C54.1,127.8,53.9,127.7,53.8,127.6z"/>
	
		<rect x="50.1" y="130.9" transform="matrix(0.3744 -0.9273 0.9273 0.3744 -89.1629 130.6607)" class="st0" width="4.4" height="1"/>
	<path class="st0" d="M56.4,130.6c-0.2-0.2-0.4-0.3-0.8-0.4c-0.3-0.1-0.5-0.2-0.8-0.2c-0.2,0-0.4-0.1-0.6-0.1l-0.2,0.8
		c0.1,0,0.3,0,0.5,0c0.2,0,0.4,0.1,0.6,0.2c0.2,0.1,0.3,0.1,0.4,0.2c0.1,0.1,0.2,0.2,0.2,0.3c0,0.1,0.1,0.2,0,0.3
		c0,0.1,0,0.2-0.1,0.3l-0.1,0.2c-0.1-0.1-0.2-0.1-0.3-0.2c-0.1-0.1-0.2-0.1-0.3-0.1c-0.2-0.1-0.5-0.1-0.7-0.2c-0.2,0-0.4,0-0.6,0
		c-0.2,0-0.4,0.1-0.5,0.3c-0.1,0.1-0.3,0.3-0.3,0.6c-0.1,0.2-0.1,0.5-0.1,0.7c0,0.2,0.1,0.4,0.2,0.5c0.1,0.2,0.3,0.3,0.4,0.4
		c0.2,0.1,0.4,0.2,0.7,0.3c0.4,0.1,0.7,0.2,1,0.3c0.3,0.1,0.5,0.1,0.7,0.1l0.9-2.5c0.1-0.2,0.1-0.5,0.1-0.7c0-0.2,0-0.4-0.1-0.6
		C56.7,131,56.6,130.8,56.4,130.6z M55.2,134c-0.2,0-0.4-0.1-0.7-0.2c-0.2-0.1-0.4-0.2-0.5-0.3c-0.1-0.1-0.1-0.3-0.1-0.5
		c0-0.1,0.1-0.2,0.2-0.3c0.1-0.1,0.2-0.1,0.3-0.1c0.1,0,0.2,0,0.3,0c0.1,0,0.2,0.1,0.3,0.1c0.1,0,0.2,0.1,0.3,0.1s0.2,0.1,0.2,0.1
		L55.2,134z"/>
	<path class="st0" d="M64.3,131.9c-0.2-0.3-0.4-0.6-0.7-0.8c-0.3-0.2-0.6-0.3-1-0.4c-0.4-0.1-0.7-0.1-1.1,0c-0.4,0.1-0.7,0.2-1,0.4
		c-0.3,0.2-0.6,0.5-0.8,0.8c-0.2,0.3-0.4,0.7-0.5,1.2S59,134,59,134.4c0.1,0.4,0.2,0.8,0.4,1.1c0.2,0.3,0.4,0.6,0.7,0.8
		c0.3,0.2,0.6,0.3,1,0.4c0.4,0.1,0.7,0.1,1.1,0c0.4-0.1,0.7-0.2,1-0.4c0.3-0.2,0.6-0.5,0.8-0.8c0.2-0.3,0.4-0.7,0.5-1.2
		c0.1-0.5,0.1-0.9,0.1-1.3C64.6,132.5,64.5,132.2,64.3,131.9z M63.5,134c-0.1,0.3-0.2,0.6-0.3,0.8c-0.1,0.2-0.3,0.4-0.5,0.6
		c-0.2,0.1-0.4,0.2-0.6,0.3c-0.2,0.1-0.5,0-0.7,0c-0.3-0.1-0.5-0.2-0.7-0.3c-0.2-0.1-0.3-0.3-0.4-0.5c-0.1-0.2-0.2-0.4-0.2-0.7
		c0-0.3,0-0.6,0.1-0.9c0.1-0.3,0.2-0.6,0.3-0.8c0.1-0.2,0.3-0.4,0.5-0.6c0.2-0.1,0.4-0.2,0.6-0.3c0.2-0.1,0.5,0,0.7,0
		c0.3,0.1,0.5,0.2,0.7,0.3c0.2,0.1,0.3,0.3,0.4,0.5c0.1,0.2,0.2,0.4,0.2,0.7C63.6,133.4,63.6,133.7,63.5,134z"/>
	<path class="st0" d="M68.6,133.3c-0.2-0.1-0.5-0.2-0.9-0.3c-0.4,0-0.7-0.1-1-0.1c-0.3,0-0.6,0-0.8,0.1l-0.5,4.2l1,0.1l0.4-3.5
		c0.1,0,0.2,0,0.3,0c0.1,0,0.3,0,0.4,0c0.2,0,0.3,0.1,0.4,0.1c0.1,0.1,0.2,0.1,0.3,0.3c0.1,0.1,0.1,0.3,0.1,0.4c0,0.2,0,0.4,0,0.6
		l-0.3,2.3l1,0.1l0.3-2.4c0-0.3,0-0.6,0-0.8c0-0.3-0.1-0.5-0.2-0.7C69,133.6,68.8,133.5,68.6,133.3z"/>
	<path class="st0" d="M72.4,134.3c0.2,0,0.3,0,0.5,0.1c0.1,0,0.3,0.1,0.4,0.1l0.3-0.8c-0.4-0.2-0.7-0.3-1.2-0.3
		c-0.3,0-0.6,0-0.9,0.1c-0.3,0.1-0.5,0.3-0.7,0.4c-0.2,0.2-0.4,0.4-0.5,0.7c-0.1,0.3-0.2,0.6-0.2,0.9c0,0.3,0,0.6,0.1,0.9
		c0.1,0.3,0.2,0.5,0.4,0.7c0.2,0.2,0.4,0.4,0.7,0.5c0.3,0.1,0.6,0.2,1,0.2c0.2,0,0.5,0,0.7,0c0.2,0,0.4-0.1,0.5-0.1l-0.1-0.8
		c-0.1,0-0.3,0.1-0.4,0.1c-0.2,0-0.3,0-0.5,0c-0.5,0-0.8-0.2-1-0.4c-0.2-0.3-0.3-0.6-0.2-1c0-0.5,0.1-0.8,0.4-1
		C71.7,134.4,72,134.3,72.4,134.3z"/>
	<path class="st0" d="M77.4,134.1c-0.2-0.2-0.4-0.3-0.7-0.5c-0.3-0.1-0.5-0.2-0.9-0.1c-0.3,0-0.6,0.1-0.8,0.2
		c-0.3,0.1-0.5,0.3-0.7,0.5c-0.2,0.2-0.3,0.4-0.4,0.7c-0.1,0.3-0.1,0.6-0.1,0.9c0,0.3,0.1,0.7,0.2,0.9c0.1,0.3,0.3,0.5,0.4,0.7
		c0.2,0.2,0.4,0.4,0.7,0.5c0.3,0.1,0.5,0.2,0.9,0.2c0.3,0,0.6-0.1,0.9-0.2c0.3-0.1,0.5-0.3,0.7-0.5c0.2-0.2,0.3-0.4,0.4-0.7
		c0.1-0.3,0.1-0.6,0.1-0.9c0-0.3-0.1-0.7-0.2-0.9C77.8,134.5,77.6,134.3,77.4,134.1z M76.8,136.8c-0.2,0.3-0.4,0.4-0.8,0.4
		c-0.3,0-0.6-0.1-0.8-0.4c-0.2-0.3-0.3-0.6-0.3-1c0-0.4,0.1-0.8,0.3-1c0.2-0.3,0.4-0.4,0.8-0.4c0.3,0,0.6,0.1,0.8,0.4
		c0.2,0.3,0.3,0.6,0.3,1C77,136.2,76.9,136.6,76.8,136.8z"/>
	<path class="st0" d="M80,136.8c-0.1-0.1-0.1-0.1-0.1-0.2c0-0.1,0-0.2-0.1-0.3l-0.4-5l-1,0.2l0.4,5c0,0.2,0.1,0.4,0.1,0.6
		c0.1,0.2,0.2,0.3,0.3,0.4c0.1,0.1,0.3,0.2,0.5,0.2c0.2,0,0.5,0.1,0.8,0l0.1-0.8c-0.1,0-0.2,0-0.3,0C80.1,136.9,80,136.9,80,136.8z"
		/>
	<polygon class="st0" points="82.2,132.7 83.3,131.2 82.6,130.7 81.6,132.3 	"/>
	<path class="st0" d="M84.6,134.1c-0.1-0.3-0.3-0.5-0.5-0.7c-0.2-0.2-0.4-0.3-0.7-0.4c-0.3-0.1-0.6-0.1-0.9-0.1
		c-0.3,0-0.6,0.1-0.8,0.3c-0.2,0.1-0.4,0.3-0.6,0.5c-0.2,0.2-0.3,0.5-0.3,0.8c-0.1,0.3-0.1,0.6,0,1c0,0.3,0.1,0.6,0.3,0.9
		c0.1,0.3,0.3,0.5,0.5,0.7c0.2,0.2,0.4,0.3,0.7,0.4c0.3,0.1,0.6,0.1,0.9,0.1c0.3,0,0.6-0.1,0.8-0.3c0.2-0.1,0.4-0.3,0.6-0.5
		c0.2-0.2,0.3-0.5,0.3-0.8c0.1-0.3,0.1-0.6,0-1C84.8,134.7,84.7,134.4,84.6,134.1z M83.7,136.3c-0.2,0.3-0.4,0.4-0.7,0.5
		c-0.3,0-0.6-0.1-0.8-0.3c-0.2-0.2-0.4-0.6-0.4-1c-0.1-0.4,0-0.8,0.1-1.1c0.2-0.3,0.4-0.4,0.7-0.5c0.3,0,0.6,0.1,0.8,0.3
		c0.2,0.2,0.4,0.6,0.4,1C83.9,135.6,83.8,136,83.7,136.3z"/>
	<path class="st0" d="M88.9,132.1c-0.2,0-0.5,0-0.8,0c-0.3,0-0.6,0.1-0.9,0.1c-0.3,0.1-0.6,0.2-0.9,0.3c-0.2,0.2-0.4,0.4-0.6,0.6
		c-0.1,0.2-0.2,0.5-0.3,0.8c0,0.3,0,0.6,0,0.9c0.1,0.3,0.2,0.6,0.3,0.9c0.1,0.2,0.3,0.4,0.5,0.6c0.2,0.1,0.4,0.2,0.7,0.3
		c0.2,0,0.5,0,0.8,0c0.2,0,0.4-0.1,0.5-0.2c0.2-0.1,0.3-0.2,0.4-0.2l0,0.2c0.1,0.3,0,0.6-0.1,0.8c-0.1,0.2-0.4,0.3-0.8,0.4
		c-0.3,0.1-0.5,0.1-0.7,0.1c-0.2,0-0.4,0-0.6-0.1l0,0.9c0.2,0,0.5,0,0.7,0c0.3,0,0.5,0,0.8-0.1c0.7-0.2,1.2-0.4,1.5-0.8
		s0.3-0.9,0.2-1.6L88.9,132.1z M88.3,135.4c-0.1,0.1-0.3,0.1-0.4,0.2c-0.3,0.1-0.5,0-0.8-0.1c-0.2-0.2-0.4-0.4-0.5-0.9
		c-0.1-0.4-0.1-0.7,0.1-1c0.1-0.3,0.4-0.5,0.8-0.5c0.2,0,0.3-0.1,0.4-0.1c0.1,0,0.2,0,0.3,0l0.5,2.2
		C88.5,135.3,88.4,135.4,88.3,135.4z"/>
	<path class="st0" d="M90.2,129.8c-0.1-0.1-0.3-0.1-0.5,0c-0.2,0-0.3,0.1-0.4,0.3c-0.1,0.1-0.1,0.3-0.1,0.5c0,0.2,0.1,0.3,0.3,0.4
		c0.1,0.1,0.3,0.1,0.5,0c0.2,0,0.3-0.1,0.4-0.3c0.1-0.1,0.1-0.3,0.1-0.5C90.4,130,90.3,129.9,90.2,129.8z"/>
	<rect x="90.3" y="131.6" transform="matrix(0.966 -0.2585 0.2585 0.966 -31.4826 28.0027)" class="st0" width="1" height="4.4"/>
	<path class="st0" d="M95,133.9c-0.1,0.1-0.3,0.1-0.5,0.2c-0.4,0.1-0.8,0.1-1.1-0.1c-0.3-0.2-0.5-0.5-0.6-0.9
		c-0.1-0.4-0.1-0.8,0-1.1c0.1-0.3,0.4-0.5,0.8-0.6c0.2-0.1,0.3-0.1,0.5-0.1c0.2,0,0.3,0,0.4,0l0-0.9c-0.4,0-0.8,0-1.2,0.1
		c-0.3,0.1-0.6,0.2-0.8,0.4c-0.2,0.2-0.4,0.4-0.5,0.7c-0.1,0.3-0.2,0.5-0.2,0.8c0,0.3,0,0.6,0.1,0.9c0.1,0.3,0.2,0.6,0.4,0.8
		c0.2,0.2,0.4,0.4,0.6,0.6c0.2,0.1,0.5,0.2,0.8,0.2c0.3,0,0.6,0,1-0.1c0.2-0.1,0.4-0.2,0.6-0.3c0.2-0.1,0.3-0.2,0.4-0.3l-0.4-0.8
		C95.2,133.8,95.1,133.8,95,133.9z"/>
	<path class="st0" d="M98.2,129.9c-0.1-0.2-0.3-0.3-0.5-0.4c-0.2-0.1-0.4-0.1-0.6-0.1c-0.2,0-0.5,0.1-0.8,0.2
		c-0.3,0.1-0.5,0.2-0.7,0.4c-0.2,0.1-0.4,0.2-0.5,0.3l0.4,0.7c0.1-0.1,0.2-0.2,0.4-0.3c0.2-0.1,0.4-0.2,0.6-0.3
		c0.2-0.1,0.3-0.1,0.4-0.1c0.1,0,0.2,0,0.3,0.1c0.1,0,0.2,0.1,0.2,0.2c0.1,0.1,0.1,0.2,0.2,0.3l0.1,0.2c-0.1,0-0.3,0-0.4,0.1
		c-0.1,0-0.2,0.1-0.3,0.1c-0.2,0.1-0.4,0.2-0.6,0.3c-0.2,0.1-0.3,0.3-0.5,0.4c-0.1,0.2-0.2,0.3-0.2,0.5c0,0.2,0,0.4,0.1,0.6
		c0.1,0.2,0.2,0.4,0.4,0.6c0.1,0.1,0.3,0.2,0.5,0.3c0.2,0,0.4,0.1,0.6,0c0.2,0,0.5-0.1,0.7-0.2c0.4-0.1,0.7-0.3,1-0.5
		c0.3-0.2,0.5-0.3,0.6-0.4l-1-2.5C98.5,130.2,98.4,130,98.2,129.9z M97.7,133c-0.2,0.1-0.4,0.1-0.6,0.1c-0.2,0-0.3-0.2-0.4-0.4
		c0-0.1-0.1-0.2,0-0.3c0-0.1,0.1-0.2,0.1-0.3c0.1-0.1,0.2-0.1,0.3-0.2c0.1-0.1,0.2-0.1,0.3-0.1c0.1,0,0.2-0.1,0.3-0.1
		c0.1,0,0.2,0,0.2,0l0.4,1C98.3,132.8,98,132.9,97.7,133z"/>
	<path class="st0" d="M102.3,126.9c0.1,0.5,0.2,1.1,0.4,1.6c0.1,0.6,0.2,1.1,0.3,1.6c-0.2-0.2-0.4-0.3-0.6-0.6
		c-0.2-0.2-0.4-0.4-0.6-0.6c-0.2-0.2-0.4-0.4-0.6-0.6c-0.2-0.2-0.4-0.4-0.5-0.6l-1,0.5c0.6,0.6,1.2,1.2,1.7,1.7
		c0.6,0.5,1.2,1,1.7,1.4c0,0.3,0,0.5-0.1,0.7c-0.1,0.2-0.2,0.3-0.5,0.4c-0.2,0.1-0.4,0.1-0.6,0.2l0.2,0.8c0.1,0,0.2,0,0.4-0.1
		c0.2,0,0.3-0.1,0.4-0.2c0.2-0.1,0.4-0.2,0.5-0.4c0.1-0.1,0.2-0.3,0.3-0.4c0.1-0.2,0.1-0.4,0.2-0.6c0-0.2,0-0.5,0-0.7
		c-0.1-1.5-0.3-3.1-0.6-4.7L102.3,126.9z"/>
	<path class="st0" d="M108.9,125.5c-0.2-0.1-0.4-0.2-0.6-0.2c-0.2,0-0.4,0-0.7,0c-0.2,0-0.5,0.1-0.8,0.1c-0.2,0-0.3,0.1-0.5,0.1
		c-0.1,0-0.3,0-0.4,0c-0.1,0-0.2,0-0.3-0.1c-0.1,0-0.2-0.1-0.2-0.2c-0.1-0.2-0.1-0.4-0.1-0.5c0.1-0.2,0.2-0.4,0.5-0.5
		c0.2-0.1,0.4-0.2,0.6-0.3c0.2-0.1,0.4-0.1,0.7-0.1l-0.2-0.9c-0.2,0-0.4,0-0.7,0.1c-0.3,0.1-0.6,0.2-0.9,0.4c-0.5,0.3-0.9,0.7-1,1.2
		s-0.1,0.9,0.2,1.3c0.1,0.2,0.3,0.4,0.5,0.5c0.2,0.1,0.3,0.2,0.5,0.2c0.2,0,0.4,0,0.6,0c0.2,0,0.4-0.1,0.6-0.1
		c0.2-0.1,0.4-0.1,0.6-0.1c0.2,0,0.3,0,0.5,0c0.1,0,0.3,0,0.4,0.1c0.1,0.1,0.2,0.1,0.3,0.3c0.1,0.2,0.1,0.4,0.1,0.6
		c-0.1,0.2-0.3,0.4-0.6,0.6c-0.3,0.2-0.6,0.3-0.9,0.4c-0.3,0.1-0.5,0.1-0.7,0.1l0.2,0.9c0.1,0,0.2,0,0.3,0c0.1,0,0.3-0.1,0.4-0.1
		c0.2,0,0.3-0.1,0.5-0.2c0.2-0.1,0.4-0.2,0.6-0.3c0.6-0.4,1-0.8,1.2-1.2c0.2-0.4,0.1-0.9-0.2-1.3C109.2,125.8,109,125.6,108.9,125.5
		z"/>
	<path class="st0" d="M111.5,122.1c-0.2-0.1-0.4-0.2-0.6-0.3c-0.2,0-0.4,0-0.6,0c-0.2,0.1-0.5,0.2-0.8,0.4c-0.2,0.2-0.4,0.3-0.6,0.5
		c-0.2,0.2-0.3,0.3-0.4,0.4l0.6,0.6c0.1-0.1,0.2-0.2,0.3-0.4c0.1-0.1,0.3-0.3,0.5-0.4c0.1-0.1,0.3-0.2,0.4-0.2c0.1,0,0.2,0,0.3,0
		c0.1,0,0.2,0.1,0.3,0.1c0.1,0.1,0.2,0.2,0.2,0.2l0.1,0.1c-0.1,0.1-0.3,0.1-0.4,0.2c-0.1,0.1-0.2,0.1-0.3,0.2
		c-0.2,0.1-0.4,0.3-0.5,0.5c-0.1,0.2-0.3,0.3-0.3,0.5c-0.1,0.2-0.1,0.4-0.1,0.6c0,0.2,0.1,0.4,0.3,0.6c0.2,0.2,0.3,0.4,0.5,0.5
		c0.2,0.1,0.4,0.1,0.5,0.1c0.2,0,0.4,0,0.6-0.1c0.2-0.1,0.4-0.2,0.6-0.4c0.3-0.2,0.6-0.5,0.8-0.7c0.2-0.2,0.4-0.4,0.5-0.5l-1.6-2.1
		C111.8,122.4,111.7,122.2,111.5,122.1z M111.8,125.2c-0.2,0.2-0.4,0.2-0.6,0.3c-0.2,0-0.3-0.1-0.5-0.3c-0.1-0.1-0.1-0.2-0.1-0.3
		c0-0.1,0-0.2,0.1-0.3c0-0.1,0.1-0.2,0.2-0.3c0.1-0.1,0.2-0.2,0.3-0.2c0.1-0.1,0.2-0.1,0.3-0.2c0.1,0,0.2-0.1,0.2-0.1l0.7,0.9
		C112.3,124.9,112.1,125,111.8,125.2z"/>
	<path class="st0" d="M114.9,122.7c-0.1,0-0.2,0-0.2,0c-0.1,0-0.1,0-0.2-0.1c-0.1-0.1-0.1-0.1-0.2-0.2l-3.2-3.9l-0.7,0.8l3.2,3.9
		c0.1,0.2,0.3,0.3,0.4,0.4c0.1,0.1,0.3,0.2,0.5,0.2c0.2,0,0.3,0,0.5-0.1c0.2-0.1,0.4-0.2,0.6-0.4l-0.4-0.7
		C115.1,122.6,115,122.7,114.9,122.7z"/>
	<path class="st0" d="M115.8,117.1l-0.8,0.7c0.1,0.2,0.2,0.5,0.4,0.7c0.1,0.3,0.2,0.5,0.4,0.8c0.1,0.3,0.2,0.5,0.3,0.8
		c0.1,0.3,0.2,0.5,0.3,0.7c-0.2-0.1-0.4-0.2-0.7-0.3c-0.3-0.1-0.5-0.3-0.8-0.4c-0.3-0.1-0.5-0.3-0.8-0.5c-0.2-0.2-0.5-0.3-0.7-0.4
		l-0.8,0.7c0.8,0.5,1.5,0.9,2.2,1.2c0.7,0.4,1.4,0.7,2,0.9l0.6-0.6c-0.2-0.6-0.4-1.3-0.7-2C116.6,118.7,116.2,117.9,115.8,117.1z"/>
	<path class="st0" d="M119,115.2c-0.2-0.1-0.4-0.2-0.6-0.2c-0.2,0-0.4,0-0.6,0.2c-0.2,0.1-0.4,0.3-0.7,0.5c-0.2,0.2-0.4,0.4-0.5,0.6
		c-0.1,0.2-0.2,0.4-0.3,0.5l0.7,0.5c0.1-0.1,0.1-0.3,0.2-0.4c0.1-0.2,0.2-0.3,0.4-0.5c0.1-0.1,0.2-0.2,0.3-0.3
		c0.1-0.1,0.2-0.1,0.3-0.1c0.1,0,0.2,0,0.3,0.1c0.1,0.1,0.2,0.1,0.3,0.2l0.1,0.1c-0.1,0.1-0.2,0.2-0.3,0.2c-0.1,0.1-0.2,0.2-0.3,0.2
		c-0.2,0.2-0.3,0.4-0.4,0.5c-0.1,0.2-0.2,0.4-0.2,0.6c0,0.2,0,0.4,0,0.6c0.1,0.2,0.2,0.4,0.4,0.5c0.2,0.2,0.4,0.3,0.6,0.4
		c0.2,0.1,0.4,0.1,0.6,0c0.2,0,0.4-0.1,0.6-0.2c0.2-0.1,0.4-0.3,0.6-0.5c0.3-0.3,0.5-0.6,0.7-0.8c0.2-0.3,0.3-0.5,0.4-0.6l-1.9-1.8
		C119.3,115.4,119.1,115.3,119,115.2z M119.8,118.3c-0.2,0.2-0.4,0.3-0.5,0.3c-0.2,0-0.3,0-0.5-0.2c-0.1-0.1-0.1-0.2-0.2-0.3
		c0-0.1,0-0.2,0-0.3c0-0.1,0.1-0.2,0.1-0.3c0.1-0.1,0.1-0.2,0.2-0.3c0.1-0.1,0.2-0.2,0.3-0.2c0.1-0.1,0.2-0.1,0.2-0.1l0.8,0.8
		C120.2,117.8,120,118,119.8,118.3z"/>
	<path class="st0" d="M123.7,109.7c-0.2-0.1-0.4-0.2-0.7-0.2c-0.2,0-0.4,0-0.6,0.2c-0.2,0.1-0.4,0.3-0.6,0.6
		c-0.1,0.1-0.2,0.2-0.2,0.3c-0.1,0.1-0.1,0.2-0.1,0.4c0,0.1-0.1,0.2-0.1,0.3c0,0.1,0,0.2,0,0.3c-0.2,0-0.4,0.1-0.5,0.2
		c-0.2,0.1-0.4,0.3-0.6,0.5c-0.2,0.3-0.4,0.6-0.6,0.8c-0.2,0.3-0.3,0.5-0.4,0.7l3.3,2.6l0.6-0.8l-2.8-2.2c0-0.1,0.1-0.1,0.2-0.3
		c0.1-0.1,0.1-0.2,0.2-0.3c0.2-0.2,0.4-0.3,0.6-0.3c0.2,0,0.5,0.2,0.9,0.5l1.8,1.4l0.6-0.8l-1.9-1.5c-0.1-0.1-0.3-0.2-0.4-0.3
		c-0.1-0.1-0.3-0.2-0.4-0.2c0-0.1,0-0.2,0.1-0.4c0-0.1,0.1-0.3,0.2-0.4c0.2-0.2,0.4-0.4,0.6-0.3c0.2,0,0.5,0.2,0.9,0.5l1.8,1.4
		l0.6-0.8l-1.9-1.5C124.1,110,123.9,109.8,123.7,109.7z"/>
	<path class="st0" d="M128,107.6c-0.1,0.2-0.2,0.4-0.3,0.6c-0.2,0.4-0.5,0.6-0.8,0.7c-0.3,0.1-0.6,0-0.9-0.1l1.6-2.4
		c0,0-0.1-0.1-0.2-0.1c-0.1,0-0.1-0.1-0.2-0.1c-0.6-0.4-1.2-0.6-1.7-0.5c-0.5,0.1-0.9,0.4-1.2,0.9c-0.1,0.2-0.2,0.5-0.3,0.7
		s0,0.5,0,0.8c0.1,0.3,0.2,0.5,0.4,0.8c0.2,0.3,0.4,0.5,0.8,0.7c0.3,0.2,0.6,0.3,0.8,0.4c0.3,0.1,0.6,0.1,0.8,0
		c0.3,0,0.5-0.2,0.8-0.3c0.2-0.2,0.5-0.4,0.7-0.8c0.1-0.1,0.2-0.3,0.2-0.4c0.1-0.1,0.1-0.3,0.2-0.4c0-0.1,0.1-0.2,0.1-0.3
		c0-0.1,0-0.2,0.1-0.2l-0.8-0.3C128.1,107.2,128,107.4,128,107.6z M125.1,108c-0.1-0.1-0.1-0.2-0.2-0.3c0-0.1,0-0.2,0-0.4
		c0-0.1,0.1-0.3,0.1-0.4c0.1-0.1,0.2-0.2,0.3-0.3c0.1-0.1,0.2-0.1,0.3-0.1c0.1,0,0.2,0,0.4,0c0.1,0,0.2,0.1,0.4,0.2l-1,1.6
		C125.3,108.2,125.2,108.1,125.1,108z"/>
	<path class="st0" d="M128.5,101.6c-0.2-0.1-0.5-0.1-0.7,0c-0.2,0-0.4,0.1-0.6,0.3s-0.4,0.4-0.6,0.7c-0.2,0.3-0.3,0.7-0.4,1
		c-0.1,0.3-0.2,0.5-0.2,0.7l3.7,2l0.5-0.9l-3.1-1.7c0-0.1,0.1-0.2,0.1-0.3c0.1-0.1,0.1-0.3,0.2-0.4c0.1-0.2,0.2-0.3,0.3-0.4
		c0.1-0.1,0.2-0.1,0.3-0.1c0.1,0,0.3,0,0.4,0.1c0.2,0.1,0.3,0.1,0.5,0.2l2,1.1l0.5-0.9l-2.2-1.2C129,101.7,128.8,101.6,128.5,101.6z
		"/>
	<path class="st0" d="M132.1,99.7c0,0.1-0.1,0.3-0.1,0.5c-0.1,0.2-0.3,0.4-0.4,0.4c-0.2,0-0.4,0-0.8-0.2l-1.6-0.7l0.6-1.4l-0.8-0.3
		l-0.6,1.4l-1.2-0.5l-0.3,1l3.5,1.6c0.3,0.1,0.5,0.2,0.7,0.3c0.2,0,0.4,0,0.6,0c0.2,0,0.4-0.1,0.5-0.3c0.2-0.2,0.3-0.4,0.4-0.7
		c0.1-0.2,0.2-0.4,0.2-0.6c0-0.2,0-0.4,0-0.5l-0.8-0.2C132.1,99.4,132.1,99.5,132.1,99.7z"/>
	<path class="st0" d="M133.5,94.9c-0.2-0.2-0.5-0.4-0.8-0.5c-0.3-0.1-0.6-0.2-0.9-0.2c-0.3,0-0.6,0-0.8,0.1
		c-0.3,0.1-0.5,0.3-0.7,0.5c-0.2,0.2-0.3,0.5-0.5,0.7c-0.1,0.3-0.2,0.6-0.1,0.8c0,0.3,0.1,0.5,0.2,0.8c0.1,0.2,0.3,0.5,0.5,0.7
		c0.2,0.2,0.5,0.4,0.8,0.5c0.3,0.1,0.6,0.2,0.9,0.2c0.3,0,0.6,0,0.8-0.1c0.3-0.1,0.5-0.3,0.7-0.5c0.2-0.2,0.3-0.4,0.5-0.7
		c0.1-0.3,0.2-0.6,0.1-0.9c0-0.3-0.1-0.5-0.2-0.8C133.9,95.3,133.7,95.1,133.5,94.9z M133.3,96.9c-0.1,0.3-0.3,0.5-0.6,0.6
		c-0.3,0.1-0.7,0-1.1-0.1c-0.4-0.2-0.7-0.4-0.9-0.6c-0.2-0.3-0.2-0.6-0.1-0.9c0.1-0.3,0.3-0.5,0.6-0.6c0.3-0.1,0.7-0.1,1.1,0.1
		c0.4,0.2,0.7,0.4,0.9,0.6C133.4,96.3,133.4,96.6,133.3,96.9z"/>
	<path class="st0" d="M130,88.5l2,0.5c-0.1,0.1-0.2,0.2-0.3,0.4c-0.1,0.1-0.2,0.3-0.2,0.5c-0.1,0.3-0.1,0.6-0.1,0.8
		c0,0.3,0.1,0.5,0.3,0.7c0.2,0.2,0.4,0.4,0.6,0.6c0.3,0.2,0.5,0.3,0.9,0.4c0.3,0.1,0.7,0.1,1,0.1c0.3,0,0.6-0.1,0.8-0.2
		c0.2-0.1,0.4-0.3,0.6-0.6c0.2-0.2,0.3-0.5,0.4-0.9c0.1-0.3,0.1-0.6,0.2-0.9c0-0.3,0-0.6,0-0.8l-6.2-1.6L130,88.5z M132.5,90
		c0-0.2,0.1-0.3,0.2-0.4c0.1-0.1,0.2-0.2,0.3-0.3l2.4,0.6c0,0.1,0,0.2,0,0.3c0,0.1,0,0.2-0.1,0.4c-0.1,0.4-0.3,0.6-0.6,0.8
		c-0.3,0.1-0.7,0.2-1.1,0c-0.4-0.1-0.7-0.3-0.9-0.5C132.4,90.7,132.4,90.4,132.5,90z"/>
	<path class="st0" d="M137.2,84.4l-0.8,0c0,0.1,0,0.3,0.1,0.5c0,0.2,0,0.4-0.1,0.7c-0.1,0.4-0.2,0.7-0.5,0.9
		c-0.2,0.2-0.5,0.3-0.9,0.2l0.5-2.8c-0.1,0-0.1,0-0.2,0c-0.1,0-0.1,0-0.2,0c-0.7-0.1-1.3-0.1-1.7,0.2c-0.4,0.3-0.7,0.7-0.8,1.3
		c0,0.3,0,0.5,0,0.8c0.1,0.3,0.2,0.5,0.3,0.7c0.2,0.2,0.4,0.4,0.6,0.6c0.3,0.2,0.6,0.3,1,0.3c0.3,0.1,0.6,0.1,0.9,0
		c0.3,0,0.5-0.1,0.8-0.3c0.2-0.1,0.4-0.3,0.6-0.6c0.2-0.3,0.3-0.6,0.3-1c0-0.1,0-0.3,0.1-0.4c0-0.1,0-0.3,0-0.4c0-0.1,0-0.2,0-0.3
		C137.2,84.5,137.2,84.5,137.2,84.4z M134.3,86.5c-0.1,0-0.2-0.1-0.4-0.2c-0.1-0.1-0.2-0.1-0.3-0.2c-0.1-0.1-0.1-0.2-0.2-0.3
		c0-0.1,0-0.3,0-0.4c0-0.1,0.1-0.3,0.1-0.4c0.1-0.1,0.2-0.2,0.3-0.2c0.1-0.1,0.2-0.1,0.4-0.1c0.1,0,0.3,0,0.4,0L134.3,86.5z"/>
	<polygon class="st0" points="136.9,80.4 135.2,80.3 135.4,77.9 134.5,77.9 134.3,80.2 132.9,80.1 133.1,77.5 132.2,77.4 
		131.9,81.1 137.7,81.6 138,77.6 137.1,77.6 	"/>
	<path class="st0" d="M135.7,74.3l-2.1-1.4l0,1.1l1.3,0.9l-1.3,0.9l0,1.1l2.1-1.5c0.2,0.1,0.4,0.3,0.6,0.4c0.2,0.1,0.4,0.3,0.6,0.4
		c0.2,0.1,0.4,0.3,0.6,0.4c0.2,0.1,0.4,0.2,0.5,0.3l0-1c-0.2-0.1-0.5-0.3-0.7-0.5c-0.3-0.2-0.5-0.4-0.8-0.6c0.1-0.1,0.2-0.2,0.4-0.3
		c0.1-0.1,0.3-0.2,0.4-0.3c0.1-0.1,0.3-0.2,0.4-0.3c0.1-0.1,0.2-0.1,0.3-0.2l0-1.1c-0.3,0.2-0.7,0.4-1.1,0.7
		C136.5,73.7,136.1,74,135.7,74.3z"/>
	<path class="st0" d="M136.8,69.6c0,0.1,0.1,0.2,0.1,0.3c0,0.1,0.1,0.3,0.1,0.5c0,0.3,0,0.5-0.2,0.6c-0.1,0.1-0.4,0.2-0.7,0.2
		l-1.8,0.1l-0.1-1.6l-0.8,0.1l0.1,1.6l-1.3,0.1l0.2,1l3.8-0.2c0.3,0,0.5-0.1,0.8-0.1c0.2-0.1,0.4-0.2,0.6-0.3
		c0.2-0.1,0.3-0.3,0.3-0.5c0.1-0.2,0.1-0.5,0.1-0.8c0-0.3-0.1-0.5-0.1-0.7c-0.1-0.2-0.1-0.3-0.2-0.5L136.8,69.6z"/>
	<path class="st0" d="M134,67.9c0-0.1-0.1-0.2-0.1-0.3c0-0.2,0-0.4,0-0.5c0-0.2,0-0.3,0-0.4l-0.9-0.1c0,0.1,0,0.1,0,0.2
		c0,0.1,0,0.2,0,0.3c0,0.1,0,0.2,0,0.3c0,0.1,0,0.2,0,0.2c0,0.4,0.1,0.7,0.2,1c0.1,0.3,0.2,0.5,0.3,0.7l4.1-0.5l-0.1-1l-3.5,0.4
		C134.1,68.2,134.1,68.1,134,67.9z"/>
	<path class="st0" d="M136,63c0.1,0.2,0.1,0.4,0.2,0.7c0.1,0.4,0,0.7-0.1,1c-0.2,0.3-0.4,0.4-0.7,0.5l-0.5-2.8c-0.1,0-0.1,0-0.2,0
		c-0.1,0-0.1,0-0.2,0c-0.7,0.1-1.3,0.4-1.6,0.8c-0.3,0.4-0.4,0.9-0.3,1.5c0,0.3,0.1,0.5,0.3,0.7c0.1,0.2,0.3,0.4,0.5,0.6
		c0.2,0.2,0.5,0.3,0.8,0.3c0.3,0.1,0.6,0.1,1,0c0.3-0.1,0.6-0.2,0.9-0.3c0.3-0.1,0.5-0.3,0.6-0.5c0.2-0.2,0.3-0.5,0.3-0.8
		c0.1-0.3,0.1-0.6,0-1c0-0.1-0.1-0.3-0.1-0.4c0-0.1-0.1-0.3-0.1-0.4c0-0.1-0.1-0.2-0.1-0.3c0-0.1-0.1-0.2-0.1-0.2l-0.8,0.3
		C135.8,62.6,135.9,62.8,136,63z M134.2,65.2c-0.1,0-0.2-0.1-0.4-0.1c-0.1-0.1-0.2-0.1-0.3-0.3c-0.1-0.1-0.1-0.2-0.2-0.4
		c0-0.1,0-0.3,0-0.4c0-0.1,0.1-0.2,0.2-0.3c0.1-0.1,0.2-0.2,0.3-0.2c0.1-0.1,0.2-0.1,0.4-0.1l0.3,1.9
		C134.5,65.2,134.3,65.2,134.2,65.2z"/>
	<path class="st0" d="M131.6,55.7c-0.2,0.1-0.4,0.3-0.5,0.4c-0.1,0.2-0.2,0.4-0.3,0.6c0,0.2,0,0.5,0.1,0.8c0,0.1,0.1,0.3,0.1,0.4
		c0.1,0.1,0.1,0.2,0.2,0.3c0.1,0.1,0.1,0.2,0.2,0.3c0.1,0.1,0.1,0.1,0.2,0.2c-0.1,0.2-0.1,0.3-0.2,0.5c0,0.2,0,0.5,0.1,0.7
		c0.1,0.3,0.2,0.7,0.3,0.9c0.1,0.3,0.3,0.5,0.4,0.7l4.1-1.2l-0.3-1l-3.4,1c0-0.1-0.1-0.2-0.1-0.3c-0.1-0.1-0.1-0.2-0.1-0.3
		c-0.1-0.3,0-0.5,0.1-0.7c0.2-0.2,0.5-0.3,0.9-0.4l2.2-0.6l-0.3-1l-2.3,0.7c-0.2,0-0.3,0.1-0.5,0.2c-0.1,0.1-0.3,0.1-0.4,0.2
		c-0.1-0.1-0.1-0.1-0.2-0.3c-0.1-0.1-0.2-0.3-0.2-0.4c-0.1-0.3,0-0.5,0.1-0.7c0.2-0.2,0.5-0.3,0.9-0.4l2.2-0.6l-0.3-1l-2.4,0.7
		C132.1,55.5,131.8,55.6,131.6,55.7z"/>
	<rect x="129.8" y="53.3" transform="matrix(0.9376 -0.3478 0.3478 0.9376 -10.4863 49.277)" class="st0" width="4.4" height="1"/>
	<path class="st0" d="M129.1,54.5c-0.1-0.1-0.3-0.1-0.5,0c-0.2,0.1-0.3,0.2-0.4,0.3c-0.1,0.2-0.1,0.3,0,0.5c0.1,0.2,0.2,0.3,0.3,0.4
		c0.1,0.1,0.3,0.1,0.5,0c0.2-0.1,0.3-0.2,0.4-0.3c0.1-0.2,0.1-0.3,0-0.5C129.3,54.7,129.2,54.6,129.1,54.5z"/>
	<path class="st0" d="M126.7,51.7l1.9-0.8c0,0.1,0,0.3,0,0.5c0,0.2,0.1,0.3,0.2,0.5c0.1,0.3,0.3,0.5,0.5,0.7
		c0.2,0.2,0.4,0.3,0.7,0.4c0.3,0.1,0.5,0.1,0.8,0.1c0.3,0,0.6-0.1,0.9-0.3c0.3-0.1,0.6-0.3,0.8-0.5c0.2-0.2,0.4-0.4,0.5-0.7
		c0.1-0.3,0.2-0.5,0.1-0.8c0-0.3-0.1-0.6-0.2-0.9c-0.1-0.3-0.3-0.6-0.5-0.8c-0.2-0.3-0.3-0.5-0.5-0.6l-5.8,2.5L126.7,51.7z
		 M129.4,50.5l2.3-1c0,0.1,0.1,0.1,0.2,0.2c0.1,0.1,0.1,0.2,0.2,0.4c0.1,0.3,0.1,0.7,0,1c-0.1,0.3-0.4,0.5-0.8,0.7
		c-0.4,0.2-0.7,0.2-1,0.2c-0.3-0.1-0.5-0.3-0.7-0.6c-0.1-0.2-0.1-0.3-0.1-0.5C129.4,50.7,129.4,50.6,129.4,50.5z"/>
	<path class="st0" d="M126.9,45.8c-0.2,0.2-0.3,0.3-0.3,0.5c-0.1,0.2-0.1,0.4-0.1,0.6c0,0.2,0.1,0.5,0.3,0.8
		c0.1,0.2,0.3,0.5,0.4,0.7c0.2,0.2,0.3,0.3,0.4,0.4l0.7-0.5c-0.1-0.1-0.2-0.2-0.3-0.4c-0.1-0.2-0.2-0.3-0.3-0.5
		c-0.1-0.2-0.1-0.3-0.1-0.4c0-0.1,0-0.2,0-0.3c0-0.1,0.1-0.2,0.2-0.3c0.1-0.1,0.2-0.1,0.3-0.2l0.1-0.1c0,0.1,0.1,0.3,0.1,0.4
		c0,0.1,0.1,0.2,0.1,0.3c0.1,0.2,0.2,0.4,0.4,0.6c0.1,0.2,0.3,0.3,0.5,0.4c0.2,0.1,0.4,0.1,0.6,0.2c0.2,0,0.4-0.1,0.6-0.2
		c0.2-0.1,0.4-0.3,0.5-0.4c0.1-0.2,0.2-0.3,0.2-0.5c0-0.2,0-0.4,0-0.6c-0.1-0.2-0.1-0.4-0.3-0.7c-0.2-0.3-0.4-0.7-0.6-0.9
		c-0.2-0.3-0.3-0.4-0.4-0.6l-2.3,1.2C127.3,45.6,127.1,45.7,126.9,45.8z M129.7,45.4c0.1,0.1,0.2,0.3,0.4,0.6
		c0.1,0.2,0.2,0.4,0.2,0.6c0,0.2-0.1,0.3-0.3,0.4c-0.1,0.1-0.2,0.1-0.3,0.1c-0.1,0-0.2,0-0.3-0.1c-0.1-0.1-0.2-0.1-0.2-0.2
		c-0.1-0.1-0.1-0.2-0.2-0.3c-0.1-0.1-0.1-0.2-0.1-0.3c0-0.1-0.1-0.2-0.1-0.2L129.7,45.4z"/>
	<path class="st0" d="M122.5,44.1l1.8-1.1c0,0.1,0,0.3,0.1,0.4c0,0.2,0.1,0.3,0.2,0.5c0.2,0.3,0.4,0.5,0.6,0.6
		c0.2,0.1,0.5,0.2,0.7,0.3c0.3,0,0.5,0,0.8-0.1c0.3-0.1,0.6-0.2,0.9-0.4c0.3-0.2,0.5-0.4,0.7-0.6c0.2-0.2,0.3-0.5,0.4-0.8
		c0.1-0.3,0.1-0.5,0-0.8s-0.2-0.6-0.4-0.9c-0.2-0.3-0.4-0.5-0.6-0.8c-0.2-0.2-0.4-0.4-0.5-0.6l-5.4,3.4L122.5,44.1z M127.2,41.2
		c0.1,0.1,0.1,0.1,0.2,0.2c0.1,0.1,0.2,0.2,0.2,0.3c0.2,0.3,0.2,0.6,0.1,0.9c-0.1,0.3-0.3,0.6-0.7,0.8c-0.4,0.2-0.7,0.3-1,0.3
		c-0.3,0-0.6-0.2-0.7-0.5c-0.1-0.1-0.2-0.3-0.2-0.4c0-0.2,0-0.3,0-0.4L127.2,41.2z"/>
	<path class="st0" d="M124.7,37.5c0.3,0.3,0.4,0.6,0.3,0.9c0,0.3-0.2,0.6-0.4,0.8l-1.7-2.3c0,0-0.1,0.1-0.2,0.1
		c-0.1,0-0.1,0.1-0.2,0.1c-0.6,0.4-0.9,0.9-1,1.4c-0.1,0.5,0,1,0.4,1.5c0.2,0.2,0.3,0.4,0.6,0.5c0.2,0.1,0.5,0.2,0.7,0.3
		c0.3,0,0.6,0,0.9-0.1c0.3-0.1,0.6-0.2,0.9-0.5c0.3-0.2,0.5-0.4,0.6-0.7c0.2-0.2,0.3-0.5,0.3-0.8c0.1-0.3,0-0.6,0-0.8
		c-0.1-0.3-0.2-0.6-0.5-0.9c-0.1-0.1-0.2-0.2-0.3-0.3c-0.1-0.1-0.2-0.2-0.3-0.3c-0.1-0.1-0.2-0.2-0.3-0.2c-0.1-0.1-0.2-0.1-0.2-0.1
		l-0.6,0.6c0.1,0.1,0.2,0.2,0.4,0.3C124.4,37.1,124.5,37.3,124.7,37.5z M123.6,39.8c-0.1,0-0.2,0.1-0.4,0c-0.1,0-0.2,0-0.4-0.1
		c-0.1-0.1-0.2-0.2-0.3-0.3c-0.1-0.1-0.1-0.2-0.2-0.4c0-0.1,0-0.2,0-0.4c0-0.1,0.1-0.2,0.2-0.3c0.1-0.1,0.2-0.2,0.3-0.3l1.1,1.5
		C123.8,39.7,123.7,39.8,123.6,39.8z"/>
	<path class="st0" d="M119.3,36.8c0.3,0.4,0.7,0.6,1,0.7c0.4,0.1,0.7,0,1-0.3c0.2-0.1,0.3-0.3,0.3-0.4c0.1-0.1,0.1-0.3,0.1-0.4
		c0-0.2,0-0.3-0.1-0.5c0-0.2-0.1-0.3-0.2-0.5c-0.1-0.3-0.2-0.5-0.2-0.7c0-0.2,0-0.3,0.1-0.4c0.1-0.1,0.2-0.1,0.4-0.1
		c0.1,0.1,0.3,0.2,0.5,0.4c0.2,0.2,0.3,0.4,0.4,0.6c0.1,0.2,0.2,0.4,0.2,0.5l0.8-0.4c0-0.1-0.1-0.3-0.2-0.5
		c-0.1-0.2-0.3-0.5-0.5-0.8c-0.4-0.4-0.7-0.7-1.1-0.8c-0.4-0.1-0.7,0-1,0.3c-0.1,0.1-0.3,0.3-0.3,0.4c-0.1,0.1-0.1,0.3-0.1,0.4
		c0,0.2,0,0.3,0,0.5c0,0.2,0.1,0.4,0.2,0.6c0.1,0.1,0.1,0.3,0.1,0.4c0,0.1,0,0.2,0.1,0.3c0,0.1,0,0.1,0,0.2c0,0.1-0.1,0.1-0.1,0.2
		c-0.1,0.1-0.2,0.1-0.4,0.1c-0.1-0.1-0.3-0.2-0.4-0.3c-0.1-0.2-0.3-0.3-0.3-0.5c-0.1-0.2-0.1-0.3-0.2-0.4l-0.7,0.4
		c0,0.1,0.1,0.3,0.2,0.5C119,36.4,119.2,36.6,119.3,36.8z"/>
	<path class="st0" d="M43.4,21c0.2,0.2,0.4,0.4,0.5,0.5c0.2,0.1,0.4,0.2,0.7,0.3c0.3,0.1,0.5,0.1,0.7,0.1c0.2,0,0.4,0,0.8,0
		c0.3,0,0.6,0,0.8-0.1c0.2,0,0.5-0.1,0.8-0.1c0.7-0.1,1.2-0.1,1.6,0c0.4,0.1,0.6,0.3,0.8,0.7c0.4,0.8,0.1,1.4-0.9,2
		c-0.9,0.4-2,0.7-3.3,0.8l0.6,1.9c1.1,0,2.3-0.4,3.8-1.1c1-0.5,1.7-1.2,2-2.1c0.4-0.9,0.3-1.8-0.2-2.7c-0.7-1.4-2.2-1.9-4.5-1.6
		c-0.1,0-0.2,0-0.4,0.1c-0.2,0-0.4,0-0.4,0.1c-0.1,0-0.2,0-0.4,0.1c-0.2,0-0.3,0-0.4,0c-0.1,0-0.2,0-0.3-0.1c-0.1,0-0.2-0.1-0.3-0.1
		c-0.1,0-0.1-0.1-0.2-0.2c-0.1-0.1-0.1-0.2-0.2-0.3c-0.1-0.3-0.2-0.5-0.2-0.7c0-0.2,0.1-0.4,0.2-0.6c0.1-0.2,0.3-0.3,0.5-0.4
		c0.2-0.1,0.4-0.2,0.7-0.4c0.7-0.4,1.5-0.6,2.3-0.6l-0.4-1.8c-1.1,0.2-2.1,0.5-2.9,0.9c-1,0.5-1.8,1.2-2.2,2.1
		c-0.5,0.8-0.4,1.7,0,2.6C43.1,20.5,43.2,20.8,43.4,21z"/>
	<polygon class="st0" points="56.3,23 54.4,15.2 58.6,20.8 60.5,20.3 61.1,13.3 63.7,20.9 65.9,20.3 62.1,9.7 59.5,10.5 58.9,18 
		54.4,11.9 51.7,12.7 54.1,23.6 	"/>
	<path class="st0" d="M66.6,16.4c0.1,0.5,0.3,1,0.5,1.5c0.2,0.5,0.5,0.9,0.9,1.3c0.4,0.3,0.9,0.6,1.5,0.8c0.6,0.2,1.3,0.2,2.1,0.2
		c1-0.1,1.8-0.3,2.5-0.6c0.7-0.4,1.1-0.8,1.4-1.4c0.3-0.6,0.5-1.2,0.6-1.8c0.1-0.6,0.1-1.4,0.1-2.2c0-0.6-0.1-1.2-0.2-1.7
		c-0.1-0.5-0.3-1-0.5-1.5c-0.2-0.5-0.6-0.9-0.9-1.3C74.1,9.2,73.6,9,73,8.8c-0.6-0.2-1.3-0.2-2.1-0.2c-0.8,0-1.5,0.2-2,0.5
		c-0.6,0.3-1,0.6-1.4,0.9c-0.3,0.4-0.6,0.8-0.8,1.4c-0.2,0.5-0.3,1.1-0.3,1.6c0,0.5,0,1.1,0,1.7C66.5,15.3,66.5,15.9,66.6,16.4z
		 M68.8,13.3c0-0.3,0.1-0.7,0.1-1c0.1-0.4,0.2-0.6,0.4-0.9c0.2-0.2,0.4-0.4,0.7-0.6c0.3-0.2,0.7-0.2,1.1-0.3c0.5,0,1,0,1.3,0.2
		c0.4,0.2,0.6,0.4,0.8,0.8c0.2,0.4,0.3,0.8,0.4,1.2c0.1,0.4,0.1,0.9,0.2,1.5c0,0.5,0,0.9,0,1.2c0,0.3-0.1,0.7-0.1,1
		c-0.1,0.3-0.2,0.6-0.4,0.9c-0.2,0.2-0.4,0.4-0.7,0.6c-0.3,0.1-0.7,0.2-1.1,0.3c-0.4,0-0.8,0-1.1-0.1c-0.3-0.1-0.6-0.3-0.8-0.5
		s-0.3-0.5-0.5-0.8c-0.1-0.3-0.2-0.7-0.3-1c-0.1-0.3-0.1-0.7-0.1-1.2C68.8,14.1,68.8,13.6,68.8,13.3z"/>
	<path class="st0" d="M78.8,18.9c0.3,0.4,0.7,0.7,1.3,1c0.6,0.3,1.2,0.5,2,0.6c1,0.1,1.8,0.1,2.5-0.2c0.7-0.2,1.3-0.6,1.7-1.1
		c0.4-0.5,0.7-1.1,0.9-1.7c0.2-0.6,0.4-1.3,0.5-2.1c0.1-0.6,0.1-1.2,0.1-1.7c0-0.5-0.1-1.1-0.2-1.6c-0.1-0.5-0.4-1-0.7-1.4
		c-0.3-0.4-0.7-0.7-1.3-1c-0.6-0.3-1.2-0.5-2-0.6c-0.8-0.1-1.5-0.1-2.1,0.1c-0.6,0.1-1.1,0.4-1.5,0.7c-0.4,0.3-0.7,0.7-1,1.2
		c-0.3,0.5-0.5,1-0.6,1.5c-0.1,0.5-0.3,1.1-0.3,1.7c-0.1,0.6-0.1,1.2-0.1,1.7c0,0.5,0.1,1.1,0.2,1.6C78.2,18,78.5,18.5,78.8,18.9z
		 M80.4,14.4c0.1-0.5,0.1-0.9,0.2-1.2c0.1-0.3,0.2-0.7,0.3-1c0.1-0.3,0.3-0.6,0.5-0.8c0.2-0.2,0.5-0.3,0.8-0.4
		c0.3-0.1,0.7-0.1,1.1-0.1c0.5,0.1,0.9,0.2,1.3,0.4c0.3,0.2,0.5,0.5,0.6,0.9c0.1,0.4,0.2,0.8,0.2,1.2c0,0.4,0,0.9-0.1,1.5
		c-0.1,0.5-0.1,0.8-0.2,1.2c-0.1,0.3-0.2,0.7-0.3,1c-0.1,0.3-0.3,0.6-0.5,0.8c-0.2,0.2-0.5,0.3-0.8,0.4c-0.3,0.1-0.7,0.1-1.1,0.1
		c-0.4-0.1-0.8-0.2-1.1-0.3c-0.3-0.2-0.5-0.4-0.6-0.6c-0.2-0.2-0.3-0.5-0.3-0.9c-0.1-0.4-0.1-0.7-0.1-1
		C80.3,15.3,80.3,14.9,80.4,14.4z"/>
	<path class="st0" d="M91.5,20.6c-0.9-0.3-1.9-0.9-2.9-1.7l-0.9,1.7c0.8,0.8,1.9,1.4,3.5,1.9c1.1,0.3,2,0.3,2.9-0.1
		c0.9-0.4,1.4-1,1.7-2c0.5-1.5-0.2-2.9-2.1-4.3c-0.1,0-0.2-0.1-0.3-0.2c-0.2-0.1-0.3-0.2-0.3-0.3c-0.1,0-0.2-0.1-0.3-0.2
		c-0.1-0.1-0.2-0.2-0.3-0.2c0-0.1-0.1-0.1-0.2-0.3c-0.1-0.1-0.1-0.2-0.1-0.3c0-0.1,0-0.2,0-0.3c0-0.1,0-0.2,0.1-0.4
		c0.1-0.3,0.2-0.5,0.4-0.6c0.1-0.1,0.3-0.2,0.6-0.2c0.2,0,0.4,0,0.6,0c0.2,0,0.4,0.1,0.7,0.2c0.8,0.2,1.5,0.6,2.1,1.2l1-1.6
		c-0.9-0.6-1.8-1.1-2.7-1.4c-1.1-0.3-2.1-0.4-3-0.1c-0.9,0.3-1.5,0.9-1.8,1.9c-0.1,0.3-0.1,0.6-0.2,0.9c0,0.3,0,0.5,0,0.7
		c0,0.2,0.1,0.4,0.3,0.7c0.1,0.2,0.3,0.4,0.4,0.6c0.1,0.1,0.3,0.3,0.5,0.6c0.3,0.2,0.4,0.4,0.6,0.5c0.1,0.1,0.4,0.3,0.7,0.5
		c0.6,0.4,0.9,0.8,1.1,1.1c0.2,0.3,0.2,0.7,0.1,1.1C93.3,20.7,92.6,21,91.5,20.6z"/>
	<polygon class="st0" points="102.8,27.3 103.6,25.5 98.9,23.2 100.2,20.6 104.5,22.7 105.4,21 101.1,18.9 102.2,16.7 106.7,18.9 
		107.6,17.2 100.8,13.8 95.9,23.8 	"/>
	<path class="st0" d="M36.8,29.8c0.8,0,1.5-0.7,1.5-1.5c0-0.8-0.7-1.5-1.5-1.5s-1.5,0.7-1.5,1.5C35.3,29.2,36,29.8,36.8,29.8z"/>
	<path class="st0" d="M113.2,29.8c0.8,0,1.5-0.7,1.5-1.5c0-0.8-0.7-1.5-1.5-1.5c-0.8,0-1.5,0.7-1.5,1.5
		C111.7,29.2,112.4,29.8,113.2,29.8z"/>
	<path class="st0" d="M75,125.8c28,0,50.8-22.8,50.8-50.8S103,24.2,75,24.2S24.2,47,24.2,75S47,125.8,75,125.8z M75,25.2
		c27.5,0,49.8,22.4,49.8,49.8c0,27.5-22.4,49.8-49.8,49.8S25.2,102.5,25.2,75C25.2,47.5,47.5,25.2,75,25.2z"/>
	<path class="st0" d="M75,3.9C35.8,3.9,3.9,35.8,3.9,75s31.9,71.1,71.1,71.1s71.1-31.9,71.1-71.1S114.2,3.9,75,3.9z M75,145.1
		c-38.7,0-70.1-31.5-70.1-70.1C4.9,36.3,36.3,4.9,75,4.9s70.1,31.5,70.1,70.1C145.1,113.7,113.7,145.1,75,145.1z"/>
	<path class="st0" d="M75,121.6c25.7,0,46.6-20.9,46.6-46.6c0-25.7-20.9-46.6-46.6-46.6S28.4,49.3,28.4,75
		C28.4,100.7,49.3,121.6,75,121.6z M75,29.4c25.1,0,45.6,20.5,45.6,45.6c0,25.1-20.5,45.6-45.6,45.6c-25.1,0-45.6-20.5-45.6-45.6
		C29.4,49.9,49.9,29.4,75,29.4z"/>
	<path class="st0" d="M75.7,75.3c0.2-0.1,0.4-0.2,0.6-0.3c-0.1,0-0.2-0.1-0.3-0.1c-0.3-0.2-0.7-0.4-1-0.6c-0.3,0.2-0.6,0.4-1,0.6
		c-0.1,0.1-0.2,0.1-0.3,0.1c0.2,0.1,0.4,0.2,0.6,0.3c0.2,0.1,0.4,0.3,0.7,0.4C75.2,75.6,75.4,75.5,75.7,75.3z"/>
	<path class="st0" d="M47.4,76.7C47.4,76.7,47.4,76.7,47.4,76.7l17.4,0c0.7-0.7,1.5-1.3,2.4-1.7c-0.9-0.4-1.7-1-2.4-1.7H47.4
		c-1.5,0-2.8-1.3-2.8-2.8c0-1.6,1.3-2.8,2.8-2.8h15.2h0.8h0.8h3.4h0.8h0.8h2.6v-3.4h-2.6h-0.8h-0.8h-3.4h-0.8h-0.8H47.5
		c-3.5,0-6.3,2.8-6.3,6.3c0,1.1,0.3,2.2,0.8,3.1C43.1,75.4,45.1,76.7,47.4,76.7z"/>
	<path class="st0" d="M70.4,80.7C70.4,80.7,70.4,80.7,70.4,80.7c-0.7,0-1.3,0.6-1.3,1.3v0c-0.2,0.1-0.5,0.2-0.8,0.3
		c-0.2,0-0.4,0.1-0.5,0.1h-0.2h-3.4h-0.8h-0.8H42.9c-0.9,0-1.7,0.8-1.7,1.7c0,0.9,0.8,1.7,1.7,1.7h19.7h0.8h0.8h3.4h0.2
		c0.2,0,0.4,0,0.5,0c0.3,0,0.5-0.1,0.8-0.1c1-0.2,1.9-0.6,2.6-1.3V82C71.7,81.3,71.2,80.7,70.4,80.7z"/>
	<path class="st0" d="M81.6,67.6h0.8h3.4h0.8h0.8h15.2c1.6,0,2.8,1.3,2.8,2.8c0,1.5-1.2,2.8-2.8,2.8H85.2c-0.7,0.7-1.5,1.3-2.4,1.7
		c0.9,0.4,1.7,1,2.4,1.7h17.3c0,0,0.1,0,0.1,0c2.3,0,4.3-1.3,5.4-3.2c0.5-0.9,0.8-2,0.8-3.1c0-3.5-2.8-6.3-6.3-6.3H87.4h-0.8h-0.8
		h-3.4h-0.8h-0.8h-2.6v3.4h2.6H81.6z"/>
	<path class="st0" d="M107.1,82.4H87.4h-0.8h-0.8h-3.4h-0.2c-0.2,0-0.4,0-0.5-0.1c-0.3-0.1-0.5-0.1-0.8-0.3v0c0-0.7-0.6-1.3-1.3-1.3
		c0,0,0,0-0.1,0c-0.7,0-1.3,0.6-1.3,1.3v2.4c0.8,0.6,1.6,1,2.6,1.3c0.2,0.1,0.5,0.1,0.8,0.1c0.2,0,0.4,0,0.5,0h0.2h3.4h0.8h0.8h19.7
		c0.9,0,1.7-0.8,1.7-1.7C108.8,83.2,108,82.4,107.1,82.4z"/>
	<path class="st0" d="M85.8,43.1c0-0.9-0.8-1.7-1.7-1.7c-0.9,0-1.7,0.8-1.7,1.7v19.6h3.4V43.1z"/>
	<path class="st0" d="M67.6,43.1c0-0.9-0.8-1.7-1.7-1.7c-0.9,0-1.7,0.8-1.7,1.7v19.6h3.4V43.1z"/>
	<path class="st0" d="M67.9,69.1h-3.6c0.2,1,0.6,1.9,1.2,2.6c0.2,0.3,0.4,0.5,0.7,0.8c0.3,0.3,0.6,0.5,1,0.8c1,0.6,2.1,0.9,3.3,0.9
		c0.2,0,0.4,0,0.6,0c0.4,0,0.7-0.1,1-0.2c0.3-0.1,0.6-0.2,0.8-0.3c0.8-0.3,1.5-0.8,2.1-1.5c0.6,0.6,1.3,1.1,2.1,1.5
		c0.3,0.1,0.6,0.2,0.8,0.3c0.3,0.1,0.7,0.2,1,0.2c0.2,0,0.4,0,0.6,0c1.2,0,2.3-0.3,3.3-0.9c0.4-0.2,0.7-0.5,1-0.8
		c0.3-0.2,0.5-0.5,0.7-0.8c0.6-0.8,1-1.6,1.2-2.6h-3.6c-0.4,1-1.4,1.7-2.6,1.7c-1.2,0-2.2-0.7-2.6-1.7c-0.1-0.3-0.2-0.6-0.2-0.9
		c0-0.1,0-0.2,0-0.3v-0.6v-2.9v-0.9v-0.8V43.1c0-0.9-0.8-1.7-1.7-1.7c0,0,0,0,0,0c0,0,0,0,0,0c-0.9,0-1.7,0.8-1.7,1.7v19.7v0.8v0.9
		v2.9V68c0,0.1,0,0.2,0,0.3c0,0.3-0.1,0.6-0.2,0.9c-0.4,1-1.4,1.7-2.6,1.7C69.3,70.8,68.3,70.1,67.9,69.1z"/>
	<path class="st0" d="M82.4,106.9c0,0.9,0.8,1.7,1.7,1.7c0.9,0,1.7-0.8,1.7-1.7V87.3h-3.4V106.9z"/>
	<path class="st0" d="M64.2,106.9c0,0.9,0.8,1.7,1.7,1.7c0.9,0,1.7-0.8,1.7-1.7V87.3h-3.4V106.9z"/>
	<path class="st0" d="M79.6,79.2c0.2,0,0.4,0,0.6,0.1c0.3,0.1,0.5,0.1,0.7,0.3c0.6,0.3,1,0.8,1.3,1.3c0,0,0,0,0.1,0h3.5
		c-0.2-1-0.6-1.9-1.2-2.6c-0.2-0.3-0.4-0.5-0.7-0.8c-0.3-0.3-0.6-0.5-1-0.8c-1-0.6-2.1-0.9-3.3-0.9c-1,0-2,0.3-2.8,0.7
		c-0.4,0.2-0.8,0.5-1.2,0.8c-0.1,0.1-0.2,0.1-0.2,0.2c-0.1,0.1-0.2,0.2-0.3,0.3c-0.1-0.1-0.2-0.2-0.3-0.3c-0.1-0.1-0.2-0.1-0.2-0.2
		c-0.4-0.3-0.8-0.6-1.2-0.8c-0.9-0.4-1.8-0.7-2.8-0.7c-1.2,0-2.3,0.3-3.3,0.9c-0.4,0.2-0.7,0.5-1,0.8c-0.3,0.2-0.5,0.5-0.7,0.8
		c-0.6,0.8-1,1.6-1.2,2.6h3.5c0,0,0,0,0.1,0c0.3-0.6,0.7-1,1.3-1.3c0.2-0.1,0.5-0.2,0.7-0.3c0.2,0,0.4-0.1,0.6-0.1
		c0.1,0,0.1,0,0.2,0c1.5,0.1,2.6,1.3,2.6,2.8v0.6V84v1.1v21.8c0,0.9,0.8,1.7,1.7,1.7c0,0,0,0,0,0c0,0,0,0,0,0c0.9,0,1.7-0.8,1.7-1.7
		V85.1V84v-1.4V82c0-1.5,1.2-2.7,2.6-2.8C79.4,79.2,79.5,79.2,79.6,79.2z"/>
</g>
</svg>
