<svg width="584" height="1203" viewBox="0 0 584 1203" fill="none" xmlns="http://www.w3.org/2000/svg">
<path d="M399.616 855.564C433.75 885.888 467.566 917.164 498.842 950.345C521.703 974.477 581.558 1038.62 583.622 1070.37C584.892 1088.94 564.252 1114.5 553.139 1128.79C536.151 1150.7 495.033 1200.08 466.456 1202.14C459.629 1202.62 453.595 1199.44 449.785 1193.73C438.83 1169.28 431.209 1143.56 419.461 1119.43C391.201 1061.48 348.655 1012.58 307.694 963.522L399.616 855.564Z" fill="#C6A586"/>
<path d="M171.314 860.486C156.708 875.727 140.674 891.286 124.957 906.845L171.314 860.486Z" fill="#597288"/>
<path d="M359.763 26.355C366.589 29.689 369.607 33.1817 374.687 38.2621C369.448 36.1982 361.192 31.5941 359.763 26.355Z" fill="#597288"/>
<path d="M198.307 833.497C200.688 829.052 205.45 826.353 208.783 823.019C207.672 829.528 201.323 830.957 198.307 833.497Z" fill="#597288"/>
<path d="M174.329 857.47C174.329 857.47 175.281 856.518 175.757 856.042L174.329 857.47Z" fill="#597288"/>
<path d="M114.64 917.165L123.529 908.274C120.513 911.291 117.497 914.307 114.64 917.165Z" fill="#597288"/>
<path d="M111.616 920.181C111.616 920.181 112.57 919.228 113.046 918.752L111.616 920.181Z" fill="#597288"/>
<path d="M186.394 845.405C187.981 843.976 189.25 842.388 190.837 840.959L186.394 845.405Z" fill="#597288"/>
<path d="M358.179 26.3557C358.179 26.3557 359.289 26.197 359.607 26.3557C361.036 31.7536 369.292 36.1989 374.532 38.2628C375.008 38.7391 375.484 39.2153 375.96 39.6916C474.551 147.014 380.724 308.951 239.902 269.102C114.64 233.698 109.718 54.9328 231.646 12.7023C279.751 -3.96769 314.202 3.97048 358.02 26.1971L358.179 26.3557Z" fill="#597288"/>
<path d="M139.563 525.66C136.388 527.883 128.451 514.388 127.022 512.165C50.9756 395.634 160.203 327.208 267.367 322.446C320.552 320.064 391.519 324.033 432.638 362.136C485.505 411.034 467.248 478.984 428.828 530.264C401.838 486.605 364.688 462.155 313.567 455.805C245.617 447.391 175.919 463.426 139.563 525.819V525.66Z" fill="#C6A586"/>
<path d="M87.6457 389.6C79.0726 412.462 75.1049 434.371 77.1688 459.138C80.5028 495.97 114.477 546.616 135.751 576.939C174.171 632.029 222.436 681.404 269.905 728.397C236.565 762.531 207.829 790.632 176.395 821.431C174.49 821.749 173.219 819.685 172.108 818.574C157.343 804.285 139.879 781.741 126.543 765.389C72.7233 699.503 7.15433 612.978 12.8697 523.278C16.2037 470.728 43.0338 418.178 87.6457 389.442V389.6Z" fill="#7DBACC"/>
<path d="M358.176 26.354C314.517 4.12739 280.066 -3.81077 231.803 12.8592C109.874 55.0897 114.796 233.855 240.059 269.259C380.88 308.949 474.548 147.171 376.116 39.8488L391.675 54.7721C480.105 174.002 349.603 328.953 215.132 262.75C83.8364 198.134 136.229 -3.49316 285.782 0.793392C309.437 1.42844 340.395 10.4779 358.176 26.1953V26.354Z" fill="#597288"/>
<path d="M273.082 757.292C273.082 760.149 271.018 761.42 269.431 763.325C261.334 772.057 252.76 779.518 244.663 787.139C251.49 775.708 263.556 766.5 273.082 757.292Z" fill="#597288"/>
<path d="M237.203 794.601C234.504 799.999 228.789 805.397 224.503 809.683C220.216 813.97 215.135 817.939 210.214 821.59C219.263 812.541 227.994 803.492 237.044 794.76L237.203 794.601Z" fill="#597288"/>
<path d="M238.629 793.171C238.629 793.171 239.583 792.219 240.059 791.743L238.629 793.171Z" fill="#597288"/>
<path d="M492.809 404.525L489.793 401.508C491.381 402.619 491.856 403.731 492.809 404.525Z" fill="#597288"/>
<path d="M489.949 390.077C651.092 520.261 496.776 713.632 398.662 826.67C314.359 923.832 224.024 1010.83 159.884 1124.35C150.041 1141.81 136.071 1178.96 125.116 1191.66C101.143 1219.45 73.5173 1184.2 58.1174 1165.78C44.1464 1148.96 3.3447 1096.25 0.486997 1077.04C-5.86346 1033.22 51.6083 972.731 80.0266 942.566C208.464 805.873 375.323 686.167 465.182 518.356C487.408 476.76 500.427 436.594 487.568 388.807C488.044 388.648 489.156 389.6 489.949 390.235V390.077Z" fill="#597288"/>
<path d="M280.222 281.325C357.908 281.325 420.886 218.348 420.886 140.663C420.886 62.9768 357.908 0 280.222 0C202.536 0 139.56 62.9768 139.56 140.663C139.56 218.348 202.536 281.325 280.222 281.325Z" fill="#597288"/>
</svg>
